<svg version="1.1" id="Layer_1" xmlns="http://www.w3.org/2000/svg" xmlns:xlink="http://www.w3.org/1999/xlink" x="0px" y="0px"
	 width="100%" viewBox="0 0 1000 1000" enable-background="new 0 0 1000 1000" xml:space="preserve">
<path fill="#64FD02" opacity="1.000000" stroke="none" 
	d="
M772.482056,671.481140 
	C760.075073,690.126465 745.503845,706.434082 729.741760,721.776550 
	C710.698425,740.312744 689.157959,755.396118 666.186218,768.539307 
	C640.015991,783.512390 611.927063,793.767029 582.626892,800.257690 
	C567.087830,803.699951 551.083557,805.403442 535.193848,806.824341 
	C503.746735,809.636536 472.627930,806.318237 442.059906,798.896484 
	C417.128845,792.843384 393.125427,784.034668 370.389496,771.864624 
	C352.628235,762.357422 335.526031,751.815186 320.154968,738.872498 
	C308.387573,728.964172 297.678619,717.788391 286.617615,707.054016 
	C271.999481,692.867493 260.669189,676.143250 249.899246,658.998169 
	C235.482971,636.048279 225.031631,611.360107 217.160095,585.479004 
	C208.914993,558.369629 204.571518,530.586182 204.413391,502.375183 
	C204.316742,485.134460 206.007141,467.786957 208.180267,450.650452 
	C212.639114,415.489746 224.244232,382.463043 241.046692,351.368256 
	C252.742355,329.724152 266.683136,309.616943 283.124939,291.106201 
	C311.502289,259.158081 345.104828,234.415710 383.595551,216.377289 
	C415.905457,201.235489 449.933807,192.118454 485.615448,188.673782 
	C514.739685,185.862152 543.437561,187.430786 572.119873,192.623444 
	C623.548584,201.934097 669.447632,223.386673 710.174438,255.821808 
	C731.264832,272.618347 749.974487,291.964264 765.871216,313.815155 
	C790.288818,347.378448 807.631226,384.269958 817.349976,424.713043 
	C826.321716,462.047394 828.077332,499.673645 823.308228,537.757080 
	C819.430847,568.720215 811.045288,598.372803 797.612366,626.416626 
	C790.248108,641.790894 781.052917,656.288208 772.482056,671.481140 
M413.652588,320.257996 
	C413.464417,320.549835 413.276245,320.841705 413.079498,321.007477 
	C413.079498,321.007477 413.128937,321.123779 412.458069,321.100281 
	C411.966492,321.731934 411.474884,322.363556 410.997498,322.997559 
	C410.997498,322.997559 410.997101,322.983887 410.374542,323.014069 
	C409.991699,323.427460 409.608856,323.840881 409.035736,324.077179 
	C409.035736,324.077179 409.252594,324.220490 408.631409,324.359650 
	C408.418182,324.929474 408.204956,325.499329 407.778778,326.468414 
	C407.583771,326.711243 407.338013,326.880371 406.253296,326.977844 
	C402.241577,328.027252 398.177124,328.915771 394.244446,330.206116 
	C392.697968,330.713593 391.446106,332.119080 389.979767,333.058746 
	C389.979767,333.058746 390.072815,333.089203 389.256439,332.998901 
	C386.337494,333.990204 382.183563,332.475861 380.998199,337.002960 
	C380.998199,337.002960 381.047729,337.036682 380.321564,336.988617 
	C379.576447,337.695496 378.831329,338.402344 378.016907,339.090942 
	C378.016907,339.090942 378.081757,339.060425 377.575836,339.195831 
	C377.388580,339.478149 377.201324,339.760468 377.001404,339.997650 
	C377.001404,339.997650 377.040070,340.024109 376.312103,339.985992 
	C374.499847,341.559723 372.687592,343.133453 370.269775,344.769775 
	C369.869873,344.709900 369.469940,344.650024 368.767212,343.888062 
	C363.929382,343.740448 359.050385,343.149078 354.267395,343.592651 
	C350.756134,343.918304 347.370636,345.600342 343.354706,346.870514 
	C342.972076,346.999634 342.589478,347.128754 341.873199,346.591980 
	C340.299652,342.207672 336.243134,341.171906 332.472260,340.408417 
	C331.626038,340.237030 330.092407,343.460815 329.017914,344.926880 
	C321.529175,343.929352 313.898804,342.818939 306.236572,342.010437 
	C305.269684,341.908417 304.135376,343.392975 302.988037,344.587463 
	C302.988037,344.587463 302.797974,344.999847 302.173004,345.428284 
	C302.145844,350.407959 301.236633,355.591705 302.328674,360.312500 
	C303.526642,365.491272 306.463593,370.296814 308.904907,375.132660 
	C309.355438,376.025085 311.053345,376.287781 312.142670,376.842072 
	C312.142670,376.842072 312.152283,376.873260 312.030029,377.620605 
	C313.339661,381.352600 314.685486,385.052856 319.658478,386.033417 
	C319.893616,386.178314 320.050720,386.383118 320.078430,387.405243 
	C321.124207,388.201141 322.169983,388.997070 323.199554,389.917633 
	C323.199554,389.917633 323.156219,389.799652 323.250977,390.353302 
	C323.568939,390.513977 323.886932,390.674652 324.095856,390.784515 
	C324.095856,390.784515 324.215881,390.776611 324.115540,391.509491 
	C327.078308,396.360870 331.661804,397.964142 336.992126,397.987274 
	C336.992126,397.987274 337.033112,397.942413 337.085205,398.670929 
	C341.899048,400.928314 342.757690,404.967865 341.997314,409.692383 
	C341.629822,411.975708 340.872864,414.226929 340.762238,416.515381 
	C340.410492,423.792938 340.210083,431.080566 340.153839,438.365906 
	C340.147064,439.246735 341.380066,440.137115 342.500610,441.318817 
	C342.688843,441.823975 342.877075,442.329163 342.994995,443.654083 
	C343.708740,446.488525 344.422485,449.322998 345.106476,452.155884 
	C345.106476,452.155884 345.114502,452.127960 344.385529,452.027161 
	C343.199921,452.961823 342.014343,453.896454 340.113678,454.932800 
	C335.570984,456.181702 334.806732,460.089142 333.160614,464.089813 
	C332.117065,466.634521 330.149567,469.208679 330.229492,471.717590 
	C330.378845,476.405396 328.516937,477.094391 324.386139,477.151459 
	C313.259857,477.305115 311.021820,479.820190 311.021759,490.780334 
	C311.021545,554.575317 311.021698,618.370361 311.024323,682.165344 
	C311.024384,683.830566 310.897308,685.514709 311.095612,687.157898 
	C312.115906,695.612976 314.670013,697.971863 322.807098,697.972900 
	C389.933441,697.981018 457.059753,697.980408 524.186096,697.939514 
	C525.973694,697.938416 527.848328,697.710510 529.533020,697.144165 
	C535.788269,695.041260 535.869324,689.484802 535.890930,684.399780 
	C536.024841,652.752747 535.959106,621.104797 535.959106,589.457153 
	C535.959167,579.930786 535.958618,579.930786 545.491150,580.021484 
	C551.600342,580.079590 552.020203,580.482666 552.020935,586.561646 
	C552.025024,619.708374 552.044189,652.855225 551.983887,686.001831 
	C551.977173,689.703003 552.467468,692.980652 556.350159,695.667847 
	C558.962646,696.437500 561.571106,697.859680 564.188232,697.875854 
	C590.497803,698.038391 616.808899,697.980957 643.119507,697.961426 
	C652.926208,697.954163 655.971313,694.909363 655.973206,685.189148 
	C655.979553,652.217590 656.041565,619.245728 655.897217,586.274841 
	C655.879517,582.229431 656.872498,580.816467 661.139404,580.875427 
	C677.068176,581.095703 693.005981,581.100708 708.931824,580.772400 
	C712.650513,580.695740 716.335632,578.990967 720.727051,577.882202 
	C721.480408,575.939636 722.233704,573.997009 723.027710,571.110962 
	C723.016052,542.725159 723.004333,514.339417 722.991516,485.236816 
	C722.067566,483.741272 721.143677,482.245728 719.975708,480.047089 
	C719.121338,479.383484 718.250854,478.135498 717.415466,478.158630 
	C714.004456,478.253082 713.848267,476.119904 713.997314,473.363068 
	C713.997314,473.363068 714.208191,473.097229 714.606812,472.828156 
	C714.854370,472.595367 714.981384,472.309082 715.000793,472.001465 
	C715.000793,472.001465 714.969360,471.986694 715.682861,471.909180 
	C716.084412,470.905243 716.485962,469.901276 716.967957,468.997589 
	C716.967957,468.997589 716.859863,468.928070 717.538391,468.694458 
	C718.655518,465.761322 719.772705,462.828156 720.973267,459.969208 
	C720.973267,459.969208 720.864624,459.943573 721.482117,459.621307 
	C724.622070,453.729248 728.800354,448.194580 727.963562,441.005280 
	C727.963562,441.005280 727.883606,440.949402 728.621094,440.639404 
	C729.729614,431.590363 731.863953,422.520782 731.683105,413.497589 
	C731.464600,402.595947 729.702759,391.657867 727.753113,380.890533 
	C726.940613,376.403625 723.919983,372.316498 721.623352,367.339233 
	C719.855774,362.000488 718.708374,356.344177 716.175354,351.397369 
	C712.363098,343.952240 707.581543,337.003448 703.056030,329.158936 
	C699.828430,324.829285 696.600830,320.499634 693.373291,316.169983 
	C693.687256,315.965607 694.001221,315.761261 694.315186,315.556885 
	C692.565491,315.235657 690.815857,314.914459 688.924377,313.979492 
	C684.039612,308.393677 679.981262,301.658051 674.113159,297.440552 
	C657.417725,285.441315 638.563171,277.324860 619.390198,270.061890 
	C617.416260,269.314117 615.153381,269.328918 612.403503,268.652313 
	C609.837830,268.379028 607.272095,268.105774 604.338440,267.639221 
	C604.071411,267.544159 603.800110,267.529938 602.826965,267.178467 
	C588.569336,266.856689 574.264587,265.692871 560.069580,266.488647 
	C549.369263,267.088440 538.809631,270.197784 527.337341,272.070190 
	C523.226135,273.481415 519.114929,274.892639 514.743896,276.419434 
	C514.743896,276.419434 514.494751,276.282257 513.600159,276.116180 
	C510.090820,277.477081 506.581451,278.837982 502.640106,280.577850 
	C501.899780,280.772614 501.159424,280.967377 499.809387,281.210022 
	C499.555359,281.506134 499.301300,281.802216 499.056305,282.013611 
	C499.056305,282.013611 499.108673,282.080780 498.307312,282.022003 
	C494.328796,282.531464 490.350281,283.040924 485.234070,283.696045 
	C483.853058,287.327057 479.681824,286.366730 475.763672,286.095001 
	C473.602539,287.883545 471.177948,288.942657 468.783417,290.066010 
	C467.920868,290.470673 467.134552,291.036255 466.306641,291.516724 
	C463.720612,293.017517 461.127258,294.505798 458.545135,296.013306 
	C457.355682,296.707733 456.185760,297.435608 454.723999,298.280457 
	C454.723999,298.280457 454.415527,298.231506 453.547760,298.087860 
	C452.056091,298.794525 450.564423,299.501221 448.652832,300.588043 
	C448.108032,300.723328 447.563232,300.858612 446.609924,300.500031 
	C443.758423,302.040588 440.906921,303.581146 438.003845,305.027985 
	C438.003845,305.027985 438.090179,305.091125 437.380005,305.009003 
	C436.660675,305.440796 435.941376,305.872589 435.146851,306.146606 
	C435.146851,306.146606 435.164764,306.320496 434.448639,306.112183 
	C432.999054,307.131287 431.549469,308.150360 430.025574,309.089966 
	C430.025574,309.089966 430.132721,309.108826 429.613007,309.207825 
	C429.408905,309.482361 429.204834,309.756866 428.998657,309.994873 
	C428.998657,309.994873 429.031982,310.010010 428.258179,309.972137 
	C426.877411,311.029236 425.496643,312.086304 424.042633,313.144104 
	C424.042633,313.144104 424.108002,313.114410 423.462372,313.064056 
	C423.053223,313.472321 422.644104,313.880554 422.183685,314.333557 
	C422.183685,314.333557 422.251709,314.330719 421.559875,314.182861 
	C421.071899,314.829926 420.583893,315.476959 420.008759,316.107941 
	C420.008759,316.107941 420.094879,316.097534 419.348267,316.021515 
	C418.259857,317.052124 417.171417,318.082703 415.992981,319.079468 
	C415.992981,319.079468 416.088623,319.083252 415.446747,319.051056 
	C415.016357,319.444702 414.585999,319.838348 414.042816,320.132324 
	C414.042816,320.132324 414.187195,320.174866 413.652588,320.257996 
z"/>
<path fill="#6B8661" opacity="1.000000" stroke="none" 
	d="
M689.066223,314.593231 
	C690.815857,314.914459 692.565491,315.235657 694.315186,315.556885 
	C694.001221,315.761261 693.687256,315.965607 693.373291,316.169983 
	C696.600830,320.499634 699.828430,324.829285 702.799133,329.549805 
	C702.531921,330.993256 702.143127,332.252075 702.583008,333.059326 
	C703.845703,335.376343 705.606323,337.420685 706.884583,339.730774 
	C717.456787,358.836700 722.433716,379.712799 726.054565,401.441467 
	C726.020325,404.392914 725.755493,406.937592 726.138611,409.380737 
	C728.946350,427.287781 725.315063,444.100800 717.459045,460.123535 
	C714.629333,465.894867 711.124939,471.335449 707.672729,477.139587 
	C704.544495,479.749176 701.671997,482.146149 698.496460,484.624908 
	C697.459473,485.094147 696.725525,485.481659 695.709473,485.889557 
	C694.951233,486.208191 694.474976,486.506439 693.622925,486.795715 
	C692.500488,486.851715 691.753906,486.916718 690.557983,486.945007 
	C687.265747,486.908264 684.422791,486.908264 681.168640,486.908264 
	C685.026611,484.047913 688.486572,481.482605 692.259888,478.805115 
	C701.426575,471.918274 706.005920,462.392273 708.996643,452.096375 
	C710.585022,446.628174 711.281128,440.854492 711.885986,435.166199 
	C712.193237,432.276947 711.271545,429.360199 707.590149,428.277557 
	C707.462341,429.042023 707.214233,429.555573 707.331970,429.963562 
	C710.669800,441.531555 707.320007,452.298401 702.174683,462.260376 
	C699.323914,467.779663 694.018677,472.031128 689.506714,476.982971 
	C680.539185,481.632324 672.332397,487.685669 663.141602,490.369965 
	C640.526978,496.974976 617.335815,497.263641 594.096619,492.904877 
	C580.766296,490.404633 567.678589,486.567017 553.853943,486.754669 
	C545.245361,486.871521 536.617798,485.594452 527.875061,484.863586 
	C527.751343,484.784241 527.463379,484.843079 527.201660,484.569580 
	C522.049927,482.238800 522.684692,478.053192 523.248169,473.804993 
	C530.243347,464.301819 539.941040,462.499969 550.474304,463.148926 
	C553.372009,463.327454 556.220154,464.309052 559.469604,464.975037 
	C569.215271,467.663483 578.484619,470.742584 587.971741,472.833069 
	C603.088745,476.164062 618.467163,476.470123 633.941650,476.214508 
	C643.035828,476.064270 651.217102,473.370544 659.251038,470.039459 
	C663.084595,468.449921 667.184814,465.634552 669.336975,462.222046 
	C674.946716,453.327179 677.691833,442.512939 687.284424,436.037750 
	C683.960205,436.966522 680.545166,438.131714 678.658875,440.509552 
	C675.948242,443.926666 674.436951,448.275299 672.263245,452.141693 
	C663.467102,467.787323 648.486877,472.435547 632.136719,473.896759 
	C625.593384,474.481476 618.860596,473.678436 612.277649,472.940247 
	C597.294495,471.260132 582.271118,469.577972 568.041809,464.137207 
	C566.468201,463.535522 565.315369,461.833649 564.032532,460.287109 
	C566.104919,456.277069 568.112122,452.621979 570.455322,448.919922 
	C573.525391,444.888428 576.281189,440.918549 578.976013,436.907684 
	C579.565613,436.030090 579.825012,434.927246 580.430542,434.064270 
	C582.455688,431.178009 585.968018,428.547180 586.394043,425.470093 
	C587.855347,414.915558 592.760986,406.044678 598.386353,397.041351 
	C605.376099,389.977783 612.526794,383.805573 622.977539,382.266296 
	C616.467407,378.300995 600.677917,387.619507 596.374146,396.991699 
	C595.176636,397.014191 594.378479,397.038147 593.363159,396.869995 
	C592.426880,395.793579 591.707825,394.909271 590.834473,393.706787 
	C586.814392,392.306763 582.986694,390.559998 579.071716,390.335297 
	C575.357117,390.122070 571.549683,391.495056 567.785461,392.183624 
	C548.540527,395.703979 531.795593,405.678711 513.635010,413.046967 
	C510.335114,413.979614 507.427582,414.876953 504.520050,415.774323 
	C504.887024,415.936768 505.254028,416.099182 505.621033,416.261627 
	C502.583099,423.450409 500.651428,431.437286 496.200531,437.606689 
	C491.620667,443.954956 487.616150,452.943756 476.821350,451.343719 
	C476.384583,451.278992 475.770844,452.408264 474.867371,452.992371 
	C474.005005,452.990570 473.514801,452.977570 472.776947,452.712463 
	C470.810669,453.099182 469.092041,453.738068 467.134644,454.583984 
	C466.280121,454.875702 465.664368,454.960388 464.915375,454.717773 
	C463.507629,453.603027 462.233185,452.815613 460.674500,451.853577 
	C457.204376,449.034149 454.018494,446.389313 450.727173,443.403442 
	C450.742920,442.365845 450.864044,441.669312 451.334015,440.854889 
	C459.757416,437.806488 467.831940,434.875946 475.906494,431.945404 
	C475.786041,431.194244 475.665619,430.443115 475.545197,429.691986 
	C473.806030,429.691986 471.946808,429.295258 470.353516,429.777344 
	C467.347137,430.687042 464.291046,431.768982 461.625885,433.388611 
	C457.918396,435.641602 454.551422,438.455017 450.706879,441.093445 
	C449.707245,441.175049 449.039398,441.191772 448.114410,440.886108 
	C447.616791,439.599335 447.359406,438.638855 447.138519,437.670013 
	C444.634766,426.688660 440.765533,416.276306 433.634766,407.404053 
	C426.632080,398.691193 416.014862,396.605377 407.402863,401.939697 
	C397.389191,408.142334 390.201660,427.132965 393.713562,438.045959 
	C393.895905,438.612671 394.109283,439.424774 393.851135,439.835114 
	C392.476288,442.020630 390.955780,444.114471 389.155823,446.183411 
	C382.156860,442.924103 375.542297,439.596588 368.767242,436.636414 
	C367.579620,436.117462 365.718475,437.140076 364.168365,437.450745 
	C365.467590,438.656494 366.568359,440.421844 368.102264,440.965729 
	C373.222229,442.781097 378.537506,444.040619 383.684875,445.787323 
	C384.975586,446.225311 385.917908,447.689819 387.048157,449.048218 
	C384.662445,452.294342 382.248901,455.174866 379.488434,458.095337 
	C377.336700,457.657104 375.445129,457.382599 373.745117,456.658417 
	C370.175140,455.137695 367.731628,449.796539 362.303650,453.482422 
	C361.247192,453.159973 360.562256,452.892548 359.686951,452.357910 
	C351.088867,449.346252 345.572205,443.917877 343.797089,434.621643 
	C344.218719,427.742523 344.558929,421.333435 345.002502,414.544800 
	C346.199677,409.858795 347.293518,405.552338 348.339233,401.435394 
	C350.455536,400.959229 352.118225,400.585144 353.780914,400.211060 
	C341.148468,396.229767 328.484741,392.993866 320.058350,381.745453 
	C312.259918,371.335297 303.653870,361.284332 305.572113,347.295044 
	C310.310455,346.813232 314.287231,346.408875 318.650024,345.991943 
	C324.091675,346.969818 329.122009,348.132843 334.213501,348.878326 
	C336.780731,349.254211 339.458801,348.873230 342.534454,348.914978 
	C345.307007,348.947632 347.634125,348.949921 349.956207,348.842407 
	C356.674652,348.531342 363.394897,348.233398 370.105194,347.790558 
	C371.472107,347.700348 372.934235,347.232788 374.121307,346.541962 
	C380.338806,342.923492 386.108765,338.152924 392.745514,335.735535 
	C400.976898,332.737396 410.043365,331.898590 414.669098,322.942413 
	C414.805603,322.678101 415.167786,322.502106 415.458740,322.349976 
	C427.927643,315.830383 440.401398,309.320099 452.872131,302.804047 
	C456.627411,300.841949 460.375763,298.866608 464.432373,296.747375 
	C468.920929,296.704071 471.971252,294.524780 474.822144,291.779938 
	C475.459625,291.166168 476.608307,291.051514 477.543579,290.783966 
	C484.574768,288.772675 491.611420,286.780609 499.042816,284.826111 
	C508.046051,281.943298 516.460449,278.073090 525.296631,276.272308 
	C549.240540,271.392578 573.308960,266.832672 598.307007,269.241821 
	C604.934204,270.556030 611.635986,270.622284 617.489502,272.884033 
	C631.207764,278.184692 645.112549,283.503510 657.810303,290.787445 
	C668.127686,296.705963 678.866699,302.986481 685.834656,313.491333 
	C686.332947,314.242645 687.962585,314.243439 689.066223,314.593231 
M460.575806,331.035309 
	C454.096283,330.078735 447.883179,330.563324 442.220032,334.159821 
	C444.713348,334.489319 447.165802,333.885803 449.536255,334.118408 
	C455.562317,334.709808 461.687042,336.841370 467.517792,336.164490 
	C473.398132,335.481842 478.970795,332.156525 484.684265,330.005066 
	C484.985443,329.891632 485.352783,329.967407 485.672424,329.887543 
	C497.575348,326.912170 509.509064,324.052032 521.364197,320.896759 
	C527.696045,319.211517 530.242126,320.709229 529.921814,327.338440 
	C529.682800,332.282745 528.611145,337.191864 527.829773,342.103882 
	C526.291626,351.774109 523.221680,360.737030 516.158997,367.956177 
	C513.605652,370.566101 511.389099,373.505524 509.018890,376.294617 
	C510.645905,376.664490 511.928772,376.509613 512.541931,375.786682 
	C516.999695,370.531189 522.230225,365.659546 525.491150,359.719452 
	C531.497925,348.777588 533.804993,336.658936 532.803223,324.107574 
	C532.432312,319.460663 528.604797,315.729370 525.281128,316.549103 
	C511.456024,319.958954 497.723785,323.773438 483.828918,326.860809 
	C476.439758,328.502686 469.742371,334.205719 460.575806,331.035309 
z"/>
<path fill="#66D525" opacity="1.000000" stroke="none" 
	d="
M555.969299,695.036865 
	C552.467468,692.980652 551.977173,689.703003 551.983887,686.001831 
	C552.044189,652.855225 552.025024,619.708374 552.020935,586.561646 
	C552.020203,580.482666 551.600342,580.079590 545.491150,580.021484 
	C535.958618,579.930786 535.959167,579.930786 535.959106,589.457153 
	C535.959106,621.104797 536.024841,652.752747 535.890930,684.399780 
	C535.869324,689.484802 535.788269,695.041260 529.533020,697.144165 
	C527.848328,697.710510 525.973694,697.938416 524.186096,697.939514 
	C457.059753,697.980408 389.933441,697.981018 322.807098,697.972900 
	C314.670013,697.971863 312.115906,695.612976 311.095612,687.157898 
	C310.897308,685.514709 311.024384,683.830566 311.024323,682.165344 
	C311.021698,618.370361 311.021545,554.575317 311.021759,490.780334 
	C311.021820,479.820190 313.259857,477.305115 324.386139,477.151459 
	C328.516937,477.094391 330.378845,476.405396 330.229492,471.717590 
	C330.149567,469.208679 332.117065,466.634521 333.580475,464.043030 
	C334.000336,463.996246 334.162933,464.139893 334.117188,464.527039 
	C333.728485,469.275970 333.385529,473.637756 332.917419,478.240143 
	C332.526794,478.724731 332.261353,478.968689 331.536438,479.141174 
	C328.587128,479.061859 326.029877,478.690826 323.624481,479.137573 
	C320.571381,479.704529 317.641510,480.935120 314.452026,482.069183 
	C314.066254,482.780792 313.886963,483.302826 313.479431,484.184113 
	C313.167023,486.201752 313.009491,487.860107 313.009186,489.518494 
	C312.997620,554.827026 312.999176,620.135620 313.002502,685.444153 
	C313.002960,694.188538 314.723572,695.901917 323.539795,695.902222 
	C389.847260,695.904602 456.154755,695.901184 522.462219,695.898132 
	C523.794922,695.898071 525.133362,695.956665 526.459351,695.857727 
	C530.722046,695.539673 533.280701,693.513245 533.270264,688.939697 
	C533.191162,654.290710 533.121277,619.641663 533.133789,584.624390 
	C533.171570,583.505676 533.124207,582.755249 533.163452,581.601440 
	C533.925415,580.434509 534.582214,579.028320 535.278809,579.008423 
	C541.363708,578.834106 547.455750,578.907776 554.052429,578.907776 
	C554.052429,581.498657 554.052368,583.449585 554.052429,585.400513 
	C554.053833,618.973694 553.997498,652.547180 554.162598,686.119507 
	C554.176270,688.903564 555.687988,691.680298 556.369812,694.604248 
	C556.235962,694.748169 555.969299,695.036865 555.969299,695.036865 
z"/>
<path fill="#66D525" opacity="1.000000" stroke="none" 
	d="
M720.036133,578.035278 
	C716.335632,578.990967 712.650513,580.695740 708.931824,580.772400 
	C693.005981,581.100708 677.068176,581.095703 661.139404,580.875427 
	C656.872498,580.816467 655.879517,582.229431 655.897217,586.274841 
	C656.041565,619.245728 655.979553,652.217590 655.973206,685.189148 
	C655.971313,694.909363 652.926208,697.954163 643.119507,697.961426 
	C616.808899,697.980957 590.497803,698.038391 564.188232,697.875854 
	C561.571106,697.859680 558.962646,696.437500 556.159729,695.352356 
	C555.969299,695.036865 556.235962,694.748169 556.743469,694.739319 
	C559.868469,695.074158 562.485107,695.709045 565.103516,695.716370 
	C591.238159,695.789734 617.372986,695.760803 643.507812,695.758179 
	C652.228394,695.757324 654.000793,693.990417 654.001099,685.264648 
	C654.002075,651.638977 653.980530,618.013306 654.037476,584.387695 
	C654.040649,582.486877 654.669556,580.587097 655.470703,578.755981 
	C674.860596,578.846191 693.787170,578.915833 712.713013,578.823486 
	C714.955261,578.812561 717.193237,577.915039 719.583862,577.580200 
	C719.734558,577.731873 720.036133,578.035217 720.036133,578.035278 
z"/>
<path fill="#1B4B0E" opacity="1.000000" stroke="none" 
	d="
M464.127289,296.897339 
	C460.375763,298.866608 456.627411,300.841949 452.872131,302.804047 
	C440.401398,309.320099 427.927643,315.830383 415.458740,322.349976 
	C415.167786,322.502106 414.805603,322.678101 414.669098,322.942413 
	C410.043365,331.898590 400.976898,332.737396 392.745514,335.735535 
	C386.108765,338.152924 380.338806,342.923492 374.121307,346.541962 
	C372.934235,347.232788 371.472107,347.700348 370.105194,347.790558 
	C363.394897,348.233398 356.674652,348.531342 349.956207,348.842407 
	C347.634125,348.949921 345.307007,348.947632 342.552979,348.653961 
	C342.151459,347.960907 342.179169,347.609406 342.206879,347.257874 
	C342.589478,347.128754 342.972076,346.999634 344.052551,346.853241 
	C352.856964,346.087372 360.963501,345.338745 369.070038,344.590118 
	C369.469940,344.650024 369.869873,344.709900 370.912872,344.811279 
	C373.384003,343.243195 375.212036,341.633667 377.040070,340.024109 
	C377.040070,340.024109 377.001404,339.997650 377.258911,339.946442 
	C377.704865,339.616974 377.893280,339.338684 378.081726,339.060425 
	C378.081757,339.060425 378.016907,339.090942 378.365814,339.064453 
	C379.492371,338.370850 380.270050,337.703766 381.047729,337.036682 
	C381.047729,337.036682 380.998199,337.002960 381.373779,336.975098 
	C384.523865,335.661224 387.298340,334.375214 390.072815,333.089203 
	C390.072815,333.089203 389.979767,333.058746 390.415222,333.076599 
	C394.478668,332.310730 398.198792,331.803253 401.698608,330.635468 
	C403.667419,329.978485 405.272583,328.231628 407.041534,326.975769 
	C407.338013,326.880371 407.583771,326.711243 408.155823,326.135803 
	C408.772797,325.275635 409.012695,324.748047 409.252594,324.220490 
	C409.252594,324.220490 409.035736,324.077179 409.419189,324.135468 
	C410.200806,323.790466 410.598938,323.387177 410.997070,322.983887 
	C410.997101,322.983887 410.997498,322.997559 411.275330,322.908997 
	C412.078400,322.254913 412.603668,321.689362 413.128937,321.123779 
	C413.128937,321.123779 413.079498,321.007477 413.339386,321.006256 
	C413.795258,320.728302 413.991211,320.451599 414.187195,320.174866 
	C414.187195,320.174866 414.042816,320.132324 414.394043,320.147766 
	C415.193024,319.803223 415.640808,319.443237 416.088623,319.083252 
	C416.088623,319.083252 415.992981,319.079468 416.356659,319.042999 
	C417.845184,318.036865 418.970032,317.067200 420.094879,316.097534 
	C420.094879,316.097534 420.008759,316.107941 420.352600,316.071564 
	C421.214844,315.467010 421.733276,314.898865 422.251709,314.330719 
	C422.251709,314.330719 422.183685,314.333557 422.503754,314.291016 
	C423.251892,313.870483 423.679932,313.492432 424.108002,313.114410 
	C424.108002,313.114410 424.042633,313.144104 424.406372,313.089722 
	C426.190735,312.026917 427.611359,311.018463 429.031982,310.010010 
	C429.031982,310.010010 428.998657,309.994873 429.257751,309.956818 
	C429.722137,309.648804 429.927429,309.378815 430.132721,309.108826 
	C430.132721,309.108826 430.025574,309.089966 430.404572,309.106567 
	C432.243958,308.188934 433.704346,307.254700 435.164764,306.320496 
	C435.164764,306.320496 435.146851,306.146606 435.512390,306.257263 
	C436.615356,305.942291 437.352753,305.516693 438.090179,305.091125 
	C438.090179,305.091125 438.003845,305.027985 438.398254,305.052612 
	C441.534607,303.716125 444.276520,302.355011 447.018433,300.993896 
	C447.563232,300.858612 448.108032,300.723328 449.224487,300.380280 
	C451.335907,299.525513 452.875732,298.878510 454.415527,298.231506 
	C454.415527,298.231506 454.723999,298.280457 455.277863,298.220947 
	C458.596924,297.740082 461.362091,297.318726 464.127289,296.897339 
z"/>
<path fill="#1B4B0E" opacity="1.000000" stroke="none" 
	d="
M597.996094,268.991516 
	C573.308960,266.832672 549.240540,271.392578 525.296631,276.272308 
	C516.460449,278.073090 508.046051,281.943298 499.093933,284.490234 
	C498.868622,283.434113 498.988617,282.757446 499.108643,282.080780 
	C499.108673,282.080780 499.056305,282.013611 499.330261,281.984802 
	C499.875824,281.691345 500.147430,281.426727 500.419067,281.162109 
	C501.159424,280.967377 501.899780,280.772614 503.248383,280.344238 
	C507.402679,278.834473 510.948730,277.558350 514.494751,276.282257 
	C514.494751,276.282257 514.743896,276.419434 515.288696,276.365845 
	C519.951416,274.938232 524.069397,273.564178 528.187378,272.190125 
	C538.809631,270.197784 549.369263,267.088440 560.069580,266.488647 
	C574.264587,265.692871 588.569336,266.856689 602.752991,267.507324 
	C601.118042,268.221313 599.557068,268.606415 597.996094,268.991516 
z"/>
<path fill="#0C2506" opacity="1.000000" stroke="none" 
	d="
M598.307007,269.241821 
	C599.557068,268.606415 601.118042,268.221313 603.101807,267.716370 
	C603.800110,267.529938 604.071411,267.544159 604.935059,267.853699 
	C608.029297,268.375458 610.526917,268.682678 613.024597,268.989899 
	C615.153381,269.328918 617.416260,269.314117 619.390198,270.061890 
	C638.563171,277.324860 657.417725,285.441315 674.113159,297.440552 
	C679.981262,301.658051 684.039612,308.393677 688.995300,314.286377 
	C687.962585,314.243439 686.332947,314.242645 685.834656,313.491333 
	C678.866699,302.986481 668.127686,296.705963 657.810303,290.787445 
	C645.112549,283.503510 631.207764,278.184692 617.489502,272.884033 
	C611.635986,270.622284 604.934204,270.556030 598.307007,269.241821 
z"/>
<path fill="#0C2506" opacity="1.000000" stroke="none" 
	d="
M318.264008,346.004517 
	C314.287231,346.408875 310.310455,346.813232 305.572113,347.295044 
	C303.653870,361.284332 312.259918,371.335297 320.058350,381.745453 
	C328.484741,392.993866 341.148468,396.229767 353.780914,400.211060 
	C352.118225,400.585144 350.455536,400.959229 348.339233,401.435394 
	C347.293518,405.552338 346.199677,409.858795 344.735168,414.277222 
	C344.221771,412.558777 344.079102,410.728394 343.933411,408.670074 
	C343.930420,408.442169 344.048187,408.001831 344.325012,407.743347 
	C344.711548,405.954254 344.821289,404.423615 344.952698,402.517151 
	C342.327332,400.741699 339.680206,399.342041 337.033112,397.942413 
	C337.033112,397.942413 336.992126,397.987274 336.827026,397.683655 
	C332.513275,395.178894 328.364563,392.977753 324.215881,390.776611 
	C324.215881,390.776611 324.095856,390.784515 324.082672,390.547089 
	C323.765076,390.139648 323.460632,389.969666 323.156219,389.799652 
	C323.156219,389.799652 323.199554,389.917633 323.127625,389.541748 
	C322.080414,388.326508 321.105103,387.487152 320.129822,386.647766 
	C320.050720,386.383118 319.893616,386.178314 319.356750,385.636261 
	C316.754120,382.450500 314.453186,379.661865 312.152283,376.873260 
	C312.152283,376.873260 312.142670,376.842072 312.110931,376.498688 
	C305.478973,366.814728 301.829346,356.595184 302.797974,344.999847 
	C302.797974,344.999847 302.988037,344.587463 303.381195,344.195007 
	C308.604248,344.536560 313.434113,345.270538 318.264008,346.004517 
z"/>
<path fill="#0C2506" opacity="1.000000" stroke="none" 
	d="
M726.123901,400.987671 
	C722.433716,379.712799 717.456787,358.836700 706.884583,339.730774 
	C705.606323,337.420685 703.845703,335.376343 702.583008,333.059326 
	C702.143127,332.252075 702.531921,330.993256 702.877136,329.892181 
	C707.581543,337.003448 712.363098,343.952240 716.175354,351.397369 
	C718.708374,356.344177 719.855774,362.000488 721.745605,368.082642 
	C723.245789,372.882416 724.623657,376.938812 725.990112,381.356873 
	C726.301697,382.812775 726.624756,383.907013 727.017578,385.275116 
	C727.133850,385.922180 727.180298,386.295349 727.163940,387.060669 
	C727.412109,388.635681 727.723083,389.818604 728.127136,391.315430 
	C728.301758,392.273346 728.383301,392.917358 728.339966,393.995300 
	C727.518005,396.615356 726.820923,398.801514 726.123901,400.987671 
z"/>
<path fill="#1B4B0E" opacity="1.000000" stroke="none" 
	d="
M726.054565,401.441467 
	C726.820923,398.801514 727.518005,396.615356 728.505493,394.397583 
	C729.147339,399.325195 729.931274,404.299316 729.761108,409.240570 
	C729.396667,419.819183 728.539124,430.380829 727.883545,440.949402 
	C727.883606,440.949402 727.963562,441.005280 727.667175,441.201691 
	C725.202026,447.579926 723.033325,453.761749 720.864624,459.943573 
	C720.864624,459.943573 720.973267,459.969208 720.641296,460.117126 
	C719.159485,463.152710 718.009705,466.040405 716.859863,468.928070 
	C716.859863,468.928070 716.967957,468.997589 716.657837,469.108002 
	C715.888245,470.141174 715.428833,471.063934 714.969360,471.986694 
	C714.969360,471.986694 715.000793,472.001465 714.770264,472.093445 
	C714.283081,472.436218 714.172546,472.740143 714.208191,473.097229 
	C714.208191,473.097229 713.997314,473.363068 713.676025,473.721130 
	C711.997437,475.460083 710.640198,476.840973 709.103882,477.957581 
	C708.592712,477.437866 708.260559,477.182404 707.928467,476.926941 
	C711.124939,471.335449 714.629333,465.894867 717.459045,460.123535 
	C725.315063,444.100800 728.946350,427.287781 726.138611,409.380737 
	C725.755493,406.937592 726.020325,404.392914 726.054565,401.441467 
z"/>
<path fill="#66D525" opacity="1.000000" stroke="none" 
	d="
M498.707977,282.051392 
	C498.988617,282.757446 498.868622,283.434113 498.697510,284.446655 
	C491.611420,286.780609 484.574768,288.772675 477.543579,290.783966 
	C476.608307,291.051514 475.459625,291.166168 474.822144,291.779938 
	C471.971252,294.524780 468.920929,296.704071 464.432373,296.747375 
	C461.362091,297.318726 458.596924,297.740082 455.419373,298.154877 
	C456.185760,297.435608 457.355682,296.707733 458.545135,296.013306 
	C461.127258,294.505798 463.720612,293.017517 466.306641,291.516724 
	C467.134552,291.036255 467.920868,290.470673 468.783417,290.066010 
	C471.177948,288.942657 473.602539,287.883545 475.763672,286.095001 
	C479.681824,286.366730 483.853058,287.327057 485.234070,283.696045 
	C490.350281,283.040924 494.328796,282.531464 498.707977,282.051392 
z"/>
<path fill="#66D525" opacity="1.000000" stroke="none" 
	d="
M318.650024,345.991943 
	C313.434113,345.270538 308.604248,344.536560 303.426483,343.972534 
	C304.135376,343.392975 305.269684,341.908417 306.236572,342.010437 
	C313.898804,342.818939 321.529175,343.929352 329.017914,344.926880 
	C330.092407,343.460815 331.626038,340.237030 332.472260,340.408417 
	C336.243134,341.171906 340.299652,342.207672 342.040039,346.924927 
	C342.179169,347.609406 342.151459,347.960907 342.105225,348.573486 
	C339.458801,348.873230 336.780731,349.254211 334.213501,348.878326 
	C329.122009,348.132843 324.091675,346.969818 318.650024,345.991943 
z"/>
<path fill="#66D525" opacity="1.000000" stroke="none" 
	d="
M728.252319,440.794403 
	C728.539124,430.380829 729.396667,419.819183 729.761108,409.240570 
	C729.931274,404.299316 729.147339,399.325195 728.630371,393.963654 
	C728.383301,392.917358 728.301758,392.273346 728.156738,390.937927 
	C727.804443,389.053864 727.515625,387.861206 727.226746,386.668549 
	C727.180298,386.295349 727.133850,385.922180 727.070312,384.915558 
	C726.702759,383.186462 726.352173,382.090820 726.001587,380.995178 
	C724.623657,376.938812 723.245789,372.882416 721.885681,368.436829 
	C723.919983,372.316498 726.940613,376.403625 727.753113,380.890533 
	C729.702759,391.657867 731.464600,402.595947 731.683105,413.497589 
	C731.863953,422.520782 729.729614,431.590363 728.252319,440.794403 
z"/>
<path fill="#0C2506" opacity="1.000000" stroke="none" 
	d="
M343.715668,435.091675 
	C345.572205,443.917877 351.088867,449.346252 359.299438,452.359467 
	C353.390625,450.983643 348.533539,453.981873 343.176178,455.229675 
	C343.668274,454.004181 344.391388,453.066071 345.114502,452.127960 
	C345.114502,452.127960 345.106476,452.155884 345.464447,452.111023 
	C346.267456,451.016998 347.362762,449.657654 347.037537,448.975891 
	C345.996643,446.793640 344.429413,444.862427 343.065308,442.834320 
	C342.877075,442.329163 342.688843,441.823975 342.243652,440.805847 
	C341.971680,439.562714 341.956635,438.832581 341.957764,437.924500 
	C341.949249,437.504608 341.861572,437.288177 341.600586,436.778992 
	C341.545410,436.020172 341.600525,435.579559 341.911102,435.105865 
	C342.682922,435.079071 343.199310,435.085388 343.715668,435.091675 
z"/>
<path fill="#76E33F" opacity="1.000000" stroke="none" 
	d="
M722.992676,485.953613 
	C723.004333,514.339417 723.016052,542.725159 722.744690,571.547668 
	C722.286255,571.962769 722.110840,571.941162 721.871338,571.462769 
	C721.857666,542.687866 721.908081,514.369751 722.217163,486.028656 
	C722.648193,485.988373 722.820435,485.970978 722.992676,485.953613 
z"/>
<path fill="#66D525" opacity="1.000000" stroke="none" 
	d="
M341.941620,438.102417 
	C341.956635,438.832581 341.971680,439.562714 342.012573,440.657959 
	C341.380066,440.137115 340.147064,439.246735 340.153839,438.365906 
	C340.210083,431.080566 340.410492,423.792938 340.762238,416.515381 
	C340.872864,414.226929 341.629822,411.975708 341.997314,409.692383 
	C342.757690,404.967865 341.899048,400.928314 337.059143,398.306671 
	C339.680206,399.342041 342.327332,400.741699 344.703796,402.806549 
	C344.304840,404.981781 344.176514,406.491791 344.048157,408.001831 
	C344.048187,408.001831 343.930420,408.442169 343.676147,408.984283 
	C342.833099,418.063934 342.244385,426.601440 341.655640,435.138977 
	C341.600525,435.579559 341.545410,436.020172 341.513123,436.955139 
	C341.564514,437.733307 341.699707,437.950958 341.941620,438.102417 
z"/>
<path fill="#66D525" opacity="1.000000" stroke="none" 
	d="
M302.485474,345.214050 
	C301.829346,356.595184 305.478973,366.814728 312.127380,376.498230 
	C311.053345,376.287781 309.355438,376.025085 308.904907,375.132660 
	C306.463593,370.296814 303.526642,365.491272 302.328674,360.312500 
	C301.236633,355.591705 302.145844,350.407959 302.485474,345.214050 
z"/>
<path fill="#66D525" opacity="1.000000" stroke="none" 
	d="
M368.918640,344.239075 
	C360.963501,345.338745 352.856964,346.087372 344.339783,346.756927 
	C347.370636,345.600342 350.756134,343.918304 354.267395,343.592651 
	C359.050385,343.149078 363.929382,343.740448 368.918640,344.239075 
z"/>
<path fill="#66D525" opacity="1.000000" stroke="none" 
	d="
M709.282959,478.221832 
	C710.640198,476.840973 711.997437,475.460083 713.620544,473.881470 
	C713.848267,476.119904 714.004456,478.253082 717.415466,478.158630 
	C718.250854,478.135498 719.121338,479.383484 720.037476,480.469147 
	C720.099304,480.891205 719.978394,481.026703 719.610168,480.982971 
	C717.830017,480.670898 716.418030,480.402588 714.605103,480.058105 
	C712.575500,479.937286 710.946838,479.892578 709.283142,479.578186 
	C709.259705,478.946289 709.271301,478.584045 709.282959,478.221832 
z"/>
<path fill="#66D525" opacity="1.000000" stroke="none" 
	d="
M406.647400,326.976807 
	C405.272583,328.231628 403.667419,329.978485 401.698608,330.635468 
	C398.198792,331.803253 394.478668,332.310730 390.455383,333.105042 
	C391.446106,332.119080 392.697968,330.713593 394.244446,330.206116 
	C398.177124,328.915771 402.241577,328.027252 406.647400,326.976807 
z"/>
<path fill="#66D525" opacity="1.000000" stroke="none" 
	d="
M721.173340,459.782440 
	C723.033325,453.761749 725.202026,447.579926 727.644897,441.158325 
	C728.800354,448.194580 724.622070,453.729248 721.173340,459.782440 
z"/>
<path fill="#66D525" opacity="1.000000" stroke="none" 
	d="
M324.165710,391.143066 
	C328.364563,392.977753 332.513275,395.178894 336.854248,397.670868 
	C331.661804,397.964142 327.078308,396.360870 324.165710,391.143066 
z"/>
<path fill="#66D525" opacity="1.000000" stroke="none" 
	d="
M333.919067,463.924377 
	C334.806732,460.089142 335.570984,456.181702 340.563721,454.979279 
	C341.013794,455.025757 341.191650,455.221954 341.040283,455.493164 
	C339.959717,456.829865 339.030548,457.895325 337.948975,459.270569 
	C337.171631,460.791504 336.546753,462.002655 335.672272,463.257568 
	C335.002747,463.580841 334.582855,463.860382 334.162964,464.139893 
	C334.162933,464.139893 334.000336,463.996246 333.919067,463.924377 
z"/>
<path fill="#66D525" opacity="1.000000" stroke="none" 
	d="
M514.047485,276.199219 
	C510.948730,277.558350 507.402679,278.834473 503.464386,280.154724 
	C506.581451,278.837982 510.090820,277.477081 514.047485,276.199219 
z"/>
<path fill="#66D525" opacity="1.000000" stroke="none" 
	d="
M527.762329,272.130127 
	C524.069397,273.564178 519.951416,274.938232 515.418579,276.308044 
	C519.114929,274.892639 523.226135,273.481415 527.762329,272.130127 
z"/>
<path fill="#66D525" opacity="1.000000" stroke="none" 
	d="
M312.091156,377.246948 
	C314.453186,379.661865 316.754120,382.450500 319.172791,385.565704 
	C314.685486,385.052856 313.339661,381.352600 312.091156,377.246948 
z"/>
<path fill="#66D525" opacity="1.000000" stroke="none" 
	d="
M343.030151,443.244202 
	C344.429413,444.862427 345.996643,446.793640 347.037537,448.975891 
	C347.362762,449.657654 346.267456,451.016998 345.479309,452.111816 
	C344.422485,449.322998 343.708740,446.488525 343.030151,443.244202 
z"/>
<path fill="#66D525" opacity="1.000000" stroke="none" 
	d="
M717.199097,468.811279 
	C718.009705,466.040405 719.159485,463.152710 720.599609,460.080017 
	C719.772705,462.828156 718.655518,465.761322 717.199097,468.811279 
z"/>
<path fill="#66D525" opacity="1.000000" stroke="none" 
	d="
M446.814178,300.746948 
	C444.276520,302.355011 441.534607,303.716125 438.424072,305.099487 
	C440.906921,303.581146 443.758423,302.040588 446.814178,300.746948 
z"/>
<path fill="#66D525" opacity="1.000000" stroke="none" 
	d="
M389.664612,333.044067 
	C387.298340,334.375214 384.523865,335.661224 381.390686,337.000000 
	C382.183563,332.475861 386.337494,333.990204 389.664612,333.044067 
z"/>
<path fill="#66D525" opacity="1.000000" stroke="none" 
	d="
M376.676086,340.005066 
	C375.212036,341.633667 373.384003,343.243195 371.215637,344.779968 
	C372.687592,343.133453 374.499847,341.559723 376.676086,340.005066 
z"/>
<path fill="#66D525" opacity="1.000000" stroke="none" 
	d="
M721.935364,571.919556 
	C722.110840,571.941162 722.286255,571.962769 722.724365,572.019409 
	C722.233704,573.997009 721.480408,575.939636 720.381592,577.958740 
	C720.036133,578.035217 719.734558,577.731873 719.748291,577.305176 
	C720.171570,575.923096 720.581055,574.967651 721.126587,573.725464 
	C721.273804,573.020081 721.284973,572.601440 721.458984,572.124512 
	C721.621887,572.066162 721.935364,571.919556 721.935364,571.919556 
z"/>
<path fill="#1B4B0E" opacity="1.000000" stroke="none" 
	d="
M612.714050,268.821106 
	C610.526917,268.682678 608.029297,268.375458 605.119019,267.950378 
	C607.272095,268.105774 609.837830,268.379028 612.714050,268.821106 
z"/>
<path fill="#66D525" opacity="1.000000" stroke="none" 
	d="
M434.806702,306.216339 
	C433.704346,307.254700 432.243958,308.188934 430.441711,309.146301 
	C431.549469,308.150360 432.999054,307.131287 434.806702,306.216339 
z"/>
<path fill="#66D525" opacity="1.000000" stroke="none" 
	d="
M428.645081,309.991089 
	C427.611359,311.018463 426.190735,312.026917 424.442993,313.089355 
	C425.496643,312.086304 426.877411,311.029236 428.645081,309.991089 
z"/>
<path fill="#66D525" opacity="1.000000" stroke="none" 
	d="
M419.721558,316.059509 
	C418.970032,317.067200 417.845184,318.036865 416.401672,319.059937 
	C417.171417,318.082703 418.259857,317.052124 419.721558,316.059509 
z"/>
<path fill="#66D525" opacity="1.000000" stroke="none" 
	d="
M453.981628,298.159668 
	C452.875732,298.878510 451.335907,299.525513 449.434448,300.190216 
	C450.564423,299.501221 452.056091,298.794525 453.981628,298.159668 
z"/>
<path fill="#66D525" opacity="1.000000" stroke="none" 
	d="
M722.992065,485.595215 
	C722.820435,485.970978 722.648193,485.988373 722.084961,485.713745 
	C721.122192,483.956726 720.550293,482.491699 719.978394,481.026703 
	C719.978394,481.026703 720.099304,480.891205 720.159546,480.820679 
	C721.143677,482.245728 722.067566,483.741272 722.992065,485.595215 
z"/>
<path fill="#66D525" opacity="1.000000" stroke="none" 
	d="
M344.750000,452.077576 
	C344.391388,453.066071 343.668274,454.004181 343.088989,455.167236 
	C343.232788,455.392151 343.209869,455.174255 342.886810,455.029907 
	C342.106384,454.997650 341.649017,455.109802 341.191650,455.221954 
	C341.191650,455.221954 341.013794,455.025757 340.921265,454.928436 
	C342.014343,453.896454 343.199921,452.961823 344.750000,452.077576 
z"/>
<path fill="#66D525" opacity="1.000000" stroke="none" 
	d="
M320.104126,387.026489 
	C321.105103,387.487152 322.080414,388.326508 323.135712,389.479431 
	C322.169983,388.997070 321.124207,388.201141 320.104126,387.026489 
z"/>
<path fill="#66D525" opacity="1.000000" stroke="none" 
	d="
M715.326111,471.947937 
	C715.428833,471.063934 715.888245,470.141174 716.617615,469.057861 
	C716.485962,469.901276 716.084412,470.905243 715.326111,471.947937 
z"/>
<path fill="#66D525" opacity="1.000000" stroke="none" 
	d="
M380.684631,337.012634 
	C380.270050,337.703766 379.492371,338.370850 378.400452,339.073547 
	C378.831329,338.402344 379.576447,337.695496 380.684631,337.012634 
z"/>
<path fill="#66D525" opacity="1.000000" stroke="none" 
	d="
M421.905792,314.256775 
	C421.733276,314.898865 421.214844,315.467010 420.396179,316.079590 
	C420.583893,315.476959 421.071899,314.829926 421.905792,314.256775 
z"/>
<path fill="#66D525" opacity="1.000000" stroke="none" 
	d="
M412.793518,321.112030 
	C412.603668,321.689362 412.078400,322.254913 411.268219,322.907837 
	C411.474884,322.363556 411.966492,321.731934 412.793518,321.112030 
z"/>
<path fill="#66D525" opacity="1.000000" stroke="none" 
	d="
M437.735107,305.050049 
	C437.352753,305.516693 436.615356,305.942291 435.549988,306.336151 
	C435.941376,305.872589 436.660675,305.440796 437.735107,305.050049 
z"/>
<path fill="#66D525" opacity="1.000000" stroke="none" 
	d="
M408.942017,324.290070 
	C409.012695,324.748047 408.772797,325.275635 408.262329,325.936157 
	C408.204956,325.499329 408.418182,324.929474 408.942017,324.290070 
z"/>
<path fill="#66D525" opacity="1.000000" stroke="none" 
	d="
M410.685791,322.998962 
	C410.598938,323.387177 410.200806,323.790466 409.514343,324.224030 
	C409.608856,323.840881 409.991699,323.427460 410.685791,322.998962 
z"/>
<path fill="#66D525" opacity="1.000000" stroke="none" 
	d="
M423.785187,313.089233 
	C423.679932,313.492432 423.251892,313.870483 422.529388,314.268677 
	C422.644104,313.880554 423.053223,313.472321 423.785187,313.089233 
z"/>
<path fill="#66D525" opacity="1.000000" stroke="none" 
	d="
M415.767700,319.067139 
	C415.640808,319.443237 415.193024,319.803223 414.450439,320.197632 
	C414.585999,319.838348 415.016357,319.444702 415.767700,319.067139 
z"/>
<path fill="#66D525" opacity="1.000000" stroke="none" 
	d="
M500.114227,281.186035 
	C500.147430,281.426727 499.875824,281.691345 499.325714,282.027161 
	C499.301300,281.802216 499.555359,281.506134 500.114227,281.186035 
z"/>
<path fill="#66D525" opacity="1.000000" stroke="none" 
	d="
M323.203613,390.076477 
	C323.460632,389.969666 323.765076,390.139648 324.137207,390.572510 
	C323.886932,390.674652 323.568939,390.513977 323.203613,390.076477 
z"/>
<path fill="#66D525" opacity="1.000000" stroke="none" 
	d="
M413.919891,320.216431 
	C413.991211,320.451599 413.795258,320.728302 413.343689,321.069275 
	C413.276245,320.841705 413.464417,320.549835 413.919891,320.216431 
z"/>
<path fill="#66D525" opacity="1.000000" stroke="none" 
	d="
M429.872864,309.158325 
	C429.927429,309.378815 429.722137,309.648804 429.258789,309.975098 
	C429.204834,309.756866 429.408905,309.482361 429.872864,309.158325 
z"/>
<path fill="#66D525" opacity="1.000000" stroke="none" 
	d="
M714.407471,472.962708 
	C714.172546,472.740143 714.283081,472.436218 714.763794,472.077362 
	C714.981384,472.309082 714.854370,472.595367 714.407471,472.962708 
z"/>
<path fill="#66D525" opacity="1.000000" stroke="none" 
	d="
M377.828796,339.128113 
	C377.893280,339.338684 377.704865,339.616974 377.265228,339.968994 
	C377.201324,339.760468 377.388580,339.478149 377.828796,339.128113 
z"/>
<path fill="#060E04" opacity="1.000000" stroke="none" 
	d="
M721.296082,572.182800 
	C721.284973,572.601440 721.273804,573.020081 720.743042,573.727173 
	C715.523804,577.631897 710.030212,577.029663 704.619629,577.015808 
	C689.626221,576.977356 674.632263,576.953369 659.639771,577.076111 
	C658.091248,577.088745 656.551208,578.125305 655.007263,578.686768 
	C654.669556,580.587097 654.040649,582.486877 654.037476,584.387695 
	C653.980530,618.013306 654.002075,651.638977 654.001099,685.264648 
	C654.000793,693.990417 652.228394,695.757324 643.507812,695.758179 
	C617.372986,695.760803 591.238159,695.789734 565.103516,695.716370 
	C562.485107,695.709045 559.868469,695.074158 556.877319,694.595459 
	C555.687988,691.680298 554.176270,688.903564 554.162598,686.119507 
	C553.997498,652.547180 554.053833,618.973694 554.052429,585.400513 
	C554.052368,583.449585 554.052429,581.498657 554.052429,578.907776 
	C547.455750,578.907776 541.363708,578.834106 535.278809,579.008423 
	C534.582214,579.028320 533.925415,580.434509 532.787170,581.607300 
	C531.633972,582.628540 530.943726,583.240479 530.253479,583.852356 
	C531.185181,584.232483 532.116821,584.612549 533.048584,584.992676 
	C533.121277,619.641663 533.191162,654.290710 533.270264,688.939697 
	C533.280701,693.513245 530.722046,695.539673 526.459351,695.857727 
	C525.133362,695.956665 523.794922,695.898071 522.462219,695.898132 
	C456.154755,695.901184 389.847260,695.904602 323.539795,695.902222 
	C314.723572,695.901917 313.002960,694.188538 313.002502,685.444153 
	C312.999176,620.135620 312.997620,554.827026 313.009186,489.518494 
	C313.009491,487.860107 313.167023,486.201752 313.823608,484.463013 
	C314.597748,486.339478 314.974884,488.296204 314.975830,490.253082 
	C315.006531,555.053528 315.000885,619.853943 315.001678,684.654358 
	C315.001770,693.011292 316.013428,693.996643 324.572937,693.997314 
	C333.401794,693.998108 342.230621,693.997498 351.059479,693.997498 
	C363.219971,693.997437 375.381836,694.082764 387.539154,693.887390 
	C389.029022,693.863464 391.507507,692.585327 391.783447,691.460571 
	C392.640778,687.965271 392.931702,684.265686 392.954468,680.642273 
	C393.060181,663.818176 393.030609,646.992859 392.956818,630.168396 
	C392.949219,628.442139 392.324463,626.718628 391.871735,624.537720 
	C391.829193,618.126648 391.797028,612.167297 392.054932,606.220459 
	C392.110931,604.928955 393.206635,603.682495 393.973145,602.733765 
	C394.806519,602.848694 395.490265,602.645142 396.575073,602.498779 
	C397.534485,603.786316 398.581573,605.020569 398.571838,606.246460 
	C398.508728,614.164856 398.214905,622.081360 397.746399,630.179077 
	C397.654907,631.237915 397.813751,632.116272 398.066162,633.441528 
	C398.095337,636.928467 398.030914,639.968445 397.675476,643.301758 
	C397.570343,648.058655 397.756226,652.522156 398.036774,657.442932 
	C398.085541,662.266663 398.039673,666.633118 397.785370,671.110352 
	C397.742004,671.821899 397.907135,672.422791 398.245300,673.458557 
	C398.576416,677.729431 398.734497,681.565430 399.049194,685.758972 
	C400.611359,686.409241 402.016632,686.955811 403.422577,686.957581 
	C441.067780,687.004272 478.713043,687.007446 516.358215,686.950928 
	C517.911804,686.948608 519.464417,686.298218 521.222168,685.866211 
	C521.426758,685.782654 521.838257,685.944336 522.081543,685.923279 
	C522.653625,685.797241 522.895996,685.590698 523.055908,684.796265 
	C523.229797,621.088806 523.421570,557.867798 523.461426,494.646698 
	C523.462585,492.766602 521.868408,490.885559 520.853821,488.752686 
	C520.123047,487.278381 519.556519,486.056335 519.173340,484.616516 
	C519.897827,484.251801 520.438965,484.104828 521.120850,484.251343 
	C522.174377,485.030334 523.087158,485.515778 524.044983,486.314636 
	C524.412659,486.932373 524.735229,487.236755 525.057861,487.541107 
	C525.364563,486.698212 525.671326,485.855347 526.350098,484.976440 
	C526.969238,484.907990 527.216309,484.875549 527.463379,484.843079 
	C527.463379,484.843079 527.751343,484.784241 527.879883,485.232117 
	C528.370483,487.718811 528.506714,490.047791 531.508301,487.662903 
	C531.720337,487.494476 533.127625,488.830353 533.752136,489.798187 
	C533.545105,492.941193 533.586243,495.752747 533.581665,498.564270 
	C533.546570,520.221008 533.594543,541.878723 533.378906,563.533752 
	C533.338989,567.546448 534.688232,568.772400 538.538391,568.625732 
	C545.359741,568.365967 552.198792,568.598145 559.023743,568.395752 
	C562.452820,568.294067 564.286438,569.067200 564.070068,573.042297 
	C563.781311,578.346802 564.004272,583.679077 563.709106,589.292236 
	C563.631226,596.731079 563.851685,603.877197 564.188354,611.477966 
	C564.219788,620.949097 564.135071,629.965515 563.798096,639.160400 
	C563.735779,640.563232 563.925720,641.787476 564.279907,643.451416 
	C564.377563,650.591248 564.310974,657.291382 563.928101,664.181396 
	C563.171997,670.573669 562.653809,676.773010 562.405334,682.983093 
	C562.378418,683.656250 563.911377,684.391785 564.820801,685.089111 
	C564.920776,685.079834 564.904053,685.279968 564.966553,685.531128 
	C565.689697,685.736206 566.350403,685.690125 567.329834,685.497681 
	C568.095520,685.446716 568.542542,685.542175 569.160889,685.970520 
	C569.931824,686.531555 570.531128,686.958069 571.131042,686.959106 
	C593.295166,686.996277 615.459412,687.014343 637.623352,686.940063 
	C638.791809,686.936157 639.957520,686.102966 641.477783,685.518677 
	C642.506836,683.997131 643.766052,682.615662 643.773010,681.227966 
	C643.940186,647.815735 643.973450,614.402771 644.275574,580.808594 
	C644.365051,579.757080 644.209961,578.886902 643.970825,577.589905 
	C644.086853,575.445007 644.286987,573.726990 644.797485,571.906982 
	C645.404724,570.811646 645.701538,569.818237 646.391968,568.657471 
	C668.182251,568.490173 689.578918,568.490173 711.445496,568.490173 
	C711.445496,566.373230 711.445190,564.748962 711.445496,563.124695 
	C711.448792,545.673035 711.419189,528.221252 711.471985,510.769775 
	C711.492615,503.972931 711.698975,497.176666 711.817017,489.965271 
	C708.713623,488.739441 705.613892,487.928436 700.826233,486.675842 
	C703.870483,485.371368 705.648315,484.609589 707.549744,483.794830 
	C708.036255,482.709015 708.677246,481.278442 709.318176,479.847839 
	C710.946838,479.892578 712.575500,479.937286 714.667236,480.399139 
	C719.762207,483.480103 720.127686,487.692719 720.089966,492.553925 
	C719.898315,517.256836 719.974121,541.962158 720.057495,566.666199 
	C720.063721,568.506409 720.864563,570.343994 721.296082,572.182800 
M652.997559,584.514709 
	C652.862427,583.155762 652.727295,581.796814 652.592163,580.437866 
	C652.245667,580.464905 651.899170,580.491882 651.552673,580.518921 
	C651.552673,583.139648 651.552673,585.760437 651.552673,588.381165 
	C651.868225,588.412903 652.183838,588.444641 652.499390,588.476379 
	C652.665283,587.423279 652.831177,586.370178 652.997559,584.514709 
z"/>
<path fill="#FCFCFC" opacity="1.000000" stroke="none" 
	d="
M520.980164,483.957825 
	C520.438965,484.104828 519.897827,484.251801 518.741821,484.589600 
	C510.310516,486.760803 502.739227,485.403839 495.054749,483.601318 
	C488.354919,482.029785 481.488068,480.481812 474.866974,484.623932 
	C467.944244,488.954773 460.915192,492.219879 452.067810,490.316895 
	C442.449097,488.247986 438.116821,481.072449 442.545105,471.922729 
	C449.010712,464.579834 455.273407,457.487274 465.048645,455.045105 
	C465.664368,454.960388 466.280121,454.875702 467.537109,454.581024 
	C469.786316,454.250458 471.394196,454.129852 473.376617,454.044861 
	C474.489166,453.937012 475.227203,453.793549 476.311829,453.811829 
	C479.585175,454.074432 482.511932,454.175262 485.789093,454.546051 
	C495.121033,455.828217 499.679596,453.793701 500.356964,449.364441 
	C496.141602,450.514130 491.568665,451.761353 487.044434,452.668335 
	C496.154602,445.807983 501.657867,436.642426 505.377258,426.464630 
	C507.303314,421.194183 509.771271,416.618073 514.027344,413.011688 
	C531.795593,405.678711 548.540527,395.703979 567.785461,392.183624 
	C571.549683,391.495056 575.357117,390.122070 579.071716,390.335297 
	C582.986694,390.559998 586.814392,392.306763 590.782349,394.026001 
	C589.928467,396.080750 588.972351,397.498108 587.657959,398.929047 
	C585.848022,400.451508 583.562622,401.737305 583.088928,403.507782 
	C581.008667,411.282745 579.452148,419.197815 577.555237,427.470642 
	C576.171631,432.809052 575.129089,437.798248 573.621094,442.642517 
	C572.919678,444.895660 571.314697,446.867493 570.119263,448.966858 
	C568.112122,452.621979 566.104919,456.277069 563.643066,460.274994 
	C561.793945,461.079102 560.399414,461.540405 558.747681,461.708313 
	C551.457642,461.184906 544.417542,460.642334 537.394104,460.808105 
	C529.537781,460.993561 523.488525,466.110352 520.696899,474.259918 
	C520.675232,477.717865 520.827698,480.837830 520.980164,483.957825 
z"/>
<path fill="#FBFBFB" opacity="1.000000" stroke="none" 
	d="
M379.835327,458.055420 
	C382.248901,455.174866 384.662445,452.294342 387.420227,449.014832 
	C389.636383,449.623627 391.508331,450.631439 393.580536,451.933167 
	C394.473999,452.537354 395.167145,452.847687 395.860321,453.157990 
	C395.987122,452.933289 396.113922,452.708557 396.240723,452.483826 
	C395.553131,451.926849 394.865540,451.369873 394.048920,450.508728 
	C392.441833,448.883057 390.963745,447.561523 389.485657,446.240021 
	C390.955780,444.114471 392.476288,442.020630 393.851135,439.835114 
	C394.109283,439.424774 393.895905,438.612671 393.713562,438.045959 
	C390.201660,427.132965 397.389191,408.142334 407.402863,401.939697 
	C416.014862,396.605377 426.632080,398.691193 433.634766,407.404053 
	C440.765533,416.276306 444.634766,426.688660 447.138519,437.670013 
	C447.359406,438.638855 447.616791,439.599335 447.951233,441.145630 
	C448.974365,442.399872 449.903473,443.072174 450.832581,443.744476 
	C454.018494,446.389313 457.204376,449.034149 460.679565,452.225403 
	C459.323730,453.910400 457.757446,455.189911 456.019501,456.162659 
	C449.433899,459.848724 443.981842,464.625946 440.373413,471.754547 
	C439.564240,472.804626 438.931793,473.600647 438.527771,474.499329 
	C434.806519,482.777161 427.818359,485.050293 419.522156,480.492279 
	C415.221832,484.754395 410.177032,484.151764 405.327362,481.765015 
	C402.750397,480.496765 400.692444,478.173889 398.325745,476.003662 
	C394.424500,473.541138 390.708771,471.163757 386.745911,469.316498 
	C380.103638,466.220184 378.085693,463.208496 379.835327,458.055420 
M416.029633,467.004883 
	C413.367279,467.004883 410.704926,467.004883 408.135437,467.004883 
	C409.164795,469.878937 411.401245,472.712708 415.550873,472.599792 
	C420.795715,472.457123 425.715088,471.108490 429.227905,466.938660 
	C424.778961,466.938660 420.843506,466.938660 416.029633,467.004883 
z"/>
<path fill="#F9FAF9" opacity="1.000000" stroke="none" 
	d="
M335.921875,463.213837 
	C336.546753,462.002655 337.171631,460.791504 338.308044,459.292847 
	C340.283051,457.728333 341.746460,456.451294 343.209869,455.174255 
	C343.209869,455.174255 343.232788,455.392151 343.319977,455.454620 
	C348.533539,453.981873 353.390625,450.983643 359.489777,452.626678 
	C360.562256,452.892548 361.247192,453.159973 362.571167,453.691284 
	C367.837006,457.554626 372.695557,460.900818 377.005920,464.845978 
	C379.698853,467.310791 381.248840,470.596161 385.408752,471.809357 
	C389.519226,473.008087 393.138641,475.890564 397.159424,478.358490 
	C397.970795,479.524567 398.596191,480.366577 400.141663,482.447418 
	C394.323181,481.607544 389.850159,481.061859 385.414368,480.299408 
	C377.748199,478.981720 369.952332,477.176575 362.897583,481.952240 
	C357.659271,485.498291 352.133698,486.752258 345.709900,485.823425 
	C342.031097,483.051849 338.640228,480.478180 335.248596,477.450073 
	C335.472534,472.401672 335.697205,467.807770 335.921875,463.213837 
z"/>
<path fill="#090D07" opacity="1.000000" stroke="none" 
	d="
M533.979126,489.466736 
	C533.127625,488.830353 531.720337,487.494476 531.508301,487.662903 
	C528.506714,490.047791 528.370483,487.718811 528.003540,485.311462 
	C536.617798,485.594452 545.245361,486.871521 553.853943,486.754669 
	C567.678589,486.567017 580.766296,490.404633 594.096619,492.904877 
	C617.335815,497.263641 640.526978,496.974976 663.141602,490.369965 
	C672.332397,487.685669 680.539185,481.632324 689.834778,477.063416 
	C690.966125,477.649078 691.456360,478.283203 691.946594,478.917297 
	C688.486572,481.482605 685.026611,484.047913 681.168640,486.908264 
	C684.422791,486.908264 687.265747,486.908264 690.420898,487.281128 
	C690.567627,488.348602 690.402100,489.043182 689.825073,489.831909 
	C684.104980,489.991394 678.693604,489.427826 673.512695,490.274689 
	C666.378967,491.440704 659.453064,493.821472 652.378845,495.419586 
	C632.974731,499.803070 613.311096,500.307312 594.108398,495.521729 
	C574.235291,490.569122 554.214722,489.539307 533.979126,489.466736 
z"/>
<path fill="#253720" opacity="1.000000" stroke="none" 
	d="
M461.015137,331.044373 
	C469.742371,334.205719 476.439758,328.502686 483.828918,326.860809 
	C497.723785,323.773438 511.456024,319.958954 525.281128,316.549103 
	C528.604797,315.729370 532.432312,319.460663 532.803223,324.107574 
	C533.804993,336.658936 531.497925,348.777588 525.491150,359.719452 
	C522.230225,365.659546 516.999695,370.531189 512.541931,375.786682 
	C511.928772,376.509613 510.645905,376.664490 509.018890,376.294617 
	C511.389099,373.505524 513.605652,370.566101 516.158997,367.956177 
	C523.221680,360.737030 526.291626,351.774109 527.829773,342.103882 
	C528.611145,337.191864 529.682800,332.282745 529.921814,327.338440 
	C530.242126,320.709229 527.696045,319.211517 521.364197,320.896759 
	C509.509064,324.052032 497.575348,326.912170 485.672424,329.887543 
	C485.352783,329.967407 484.985443,329.891632 484.684265,330.005066 
	C478.970795,332.156525 473.398132,335.481842 467.517792,336.164490 
	C461.687042,336.841370 455.562317,334.709808 449.536255,334.118408 
	C447.165802,333.885803 444.713348,334.489319 442.220032,334.159821 
	C447.883179,330.563324 454.096283,330.078735 461.015137,331.044373 
z"/>
<path fill="#253720" opacity="1.000000" stroke="none" 
	d="
M559.004883,462.001709 
	C560.399414,461.540405 561.793945,461.079102 563.577881,460.629883 
	C565.315369,461.833649 566.468201,463.535522 568.041809,464.137207 
	C582.271118,469.577972 597.294495,471.260132 612.277649,472.940247 
	C618.860596,473.678436 625.593384,474.481476 632.136719,473.896759 
	C648.486877,472.435547 663.467102,467.787323 672.263245,452.141693 
	C674.436951,448.275299 675.948242,443.926666 678.658875,440.509552 
	C680.545166,438.131714 683.960205,436.966522 687.284424,436.037750 
	C677.691833,442.512939 674.946716,453.327179 669.336975,462.222046 
	C667.184814,465.634552 663.084595,468.449921 659.251038,470.039459 
	C651.217102,473.370544 643.035828,476.064270 633.941650,476.214508 
	C618.467163,476.470123 603.088745,476.164062 587.971741,472.833069 
	C578.484619,470.742584 569.215271,467.663483 559.433289,464.612122 
	C559.013855,463.464783 559.009338,462.733215 559.004883,462.001709 
z"/>
<path fill="#525A4F" opacity="1.000000" stroke="none" 
	d="
M570.455322,448.919891 
	C571.314697,446.867493 572.919678,444.895660 573.621094,442.642517 
	C575.129089,437.798248 576.171631,432.809052 577.808167,427.454987 
	C578.718445,427.030121 579.225159,427.029449 579.871338,427.423645 
	C581.261475,426.079559 583.361267,424.452850 583.608582,422.581299 
	C584.449524,416.218872 585.746582,410.238556 589.822876,404.980347 
	C591.571106,402.725250 592.357117,399.724213 593.580322,397.062103 
	C594.378479,397.038147 595.176636,397.014191 596.715088,397.030609 
	C597.675110,397.129456 597.894836,397.187988 598.114624,397.246521 
	C592.760986,406.044678 587.855347,414.915558 586.394043,425.470093 
	C585.968018,428.547180 582.455688,431.178009 580.430542,434.064270 
	C579.825012,434.927246 579.565613,436.030090 578.976013,436.907684 
	C576.281189,440.918549 573.525391,444.888428 570.455322,448.919891 
z"/>
<path fill="#525A4F" opacity="1.000000" stroke="none" 
	d="
M513.635010,413.046967 
	C509.771271,416.618073 507.303314,421.194183 505.377258,426.464630 
	C501.657867,436.642426 496.154602,445.807983 486.848969,452.948059 
	C486.216095,453.804047 485.827393,454.040070 485.438690,454.276123 
	C482.511932,454.175262 479.585175,454.074432 476.228088,453.662842 
	C475.644958,453.178406 475.458893,453.054810 475.239563,452.981201 
	C475.770844,452.408264 476.384583,451.278992 476.821350,451.343719 
	C487.616150,452.943756 491.620667,443.954956 496.200531,437.606689 
	C500.651428,431.437286 502.583099,423.450409 505.621033,416.261627 
	C505.254028,416.099182 504.887024,415.936768 504.520050,415.774323 
	C507.427582,414.876953 510.335114,413.979614 513.635010,413.046967 
z"/>
<path fill="#253720" opacity="1.000000" stroke="none" 
	d="
M692.259888,478.805115 
	C691.456360,478.283203 690.966125,477.649078 690.147827,476.934509 
	C694.018677,472.031128 699.323914,467.779663 702.174683,462.260376 
	C707.320007,452.298401 710.669800,441.531555 707.331970,429.963562 
	C707.214233,429.555573 707.462341,429.042023 707.590149,428.277557 
	C711.271545,429.360199 712.193237,432.276947 711.885986,435.166199 
	C711.281128,440.854492 710.585022,446.628174 708.996643,452.096375 
	C706.005920,462.392273 701.426575,471.918274 692.259888,478.805115 
z"/>
<path fill="#525A4F" opacity="1.000000" stroke="none" 
	d="
M558.747681,461.708313 
	C559.009338,462.733215 559.013855,463.464783 559.054688,464.559235 
	C556.220154,464.309052 553.372009,463.327454 550.474304,463.148926 
	C539.941040,462.499969 530.243347,464.301819 522.897461,473.797119 
	C521.805298,473.963928 521.338257,473.942932 520.871155,473.921936 
	C523.488525,466.110352 529.537781,460.993561 537.394104,460.808105 
	C544.417542,460.642334 551.457642,461.184906 558.747681,461.708313 
z"/>
<path fill="#5F605F" opacity="1.000000" stroke="none" 
	d="
M396.973450,478.034424 
	C393.138641,475.890564 389.519226,473.008087 385.408752,471.809357 
	C381.248840,470.596161 379.698853,467.310791 377.005920,464.845978 
	C372.695557,460.900818 367.837006,457.554626 362.942657,453.746338 
	C367.731628,449.796539 370.175140,455.137695 373.745117,456.658417 
	C375.445129,457.382599 377.336700,457.657104 379.488403,458.095337 
	C378.085693,463.208496 380.103638,466.220184 386.745911,469.316498 
	C390.708771,471.163757 394.424500,473.541138 398.054932,476.264709 
	C397.563507,477.244263 397.268463,477.639343 396.973450,478.034424 
z"/>
<path fill="#E6E6E7" opacity="1.000000" stroke="none" 
	d="
M593.363159,396.869995 
	C592.357117,399.724213 591.571106,402.725250 589.822876,404.980347 
	C585.746582,410.238556 584.449524,416.218872 583.608582,422.581299 
	C583.361267,424.452850 581.261475,426.079559 579.992432,426.999512 
	C580.667297,421.991058 580.932739,417.670990 582.161743,413.645111 
	C583.699219,408.608826 586.028687,403.814331 588.016296,398.915466 
	C588.972351,397.498108 589.928467,396.080750 590.936646,394.344177 
	C591.707825,394.909271 592.426880,395.793579 593.363159,396.869995 
z"/>
<path fill="#101110" opacity="1.000000" stroke="none" 
	d="
M389.155823,446.183411 
	C390.963745,447.561523 392.441833,448.883057 393.847168,450.713074 
	C393.643036,451.360748 393.511627,451.500000 393.380249,451.639282 
	C391.508331,450.631439 389.636383,449.623627 387.392395,448.649200 
	C385.917908,447.689819 384.975586,446.225311 383.684875,445.787323 
	C378.537506,444.040619 373.222229,442.781097 368.102264,440.965729 
	C366.568359,440.421844 365.467590,438.656494 364.168365,437.450745 
	C365.718475,437.140076 367.579620,436.117462 368.767242,436.636414 
	C375.542297,439.596588 382.156860,442.924103 389.155823,446.183411 
z"/>
<path fill="#101110" opacity="1.000000" stroke="none" 
	d="
M451.038696,441.028564 
	C454.551422,438.455017 457.918396,435.641602 461.625885,433.388611 
	C464.291046,431.768982 467.347137,430.687042 470.353516,429.777344 
	C471.946808,429.295258 473.806030,429.691986 475.545197,429.691986 
	C475.665619,430.443115 475.786041,431.194244 475.906494,431.945404 
	C467.831940,434.875946 459.757416,437.806488 451.345398,440.870514 
	C451.007965,441.003998 451.038696,441.028564 451.038696,441.028564 
z"/>
<path fill="#5F605F" opacity="1.000000" stroke="none" 
	d="
M440.656067,471.548126 
	C443.981842,464.625946 449.433899,459.848724 456.019501,456.162659 
	C457.757446,455.189911 459.323730,453.910400 460.963776,452.400024 
	C462.233185,452.815613 463.507629,453.603027 464.915375,454.717773 
	C455.273407,457.487274 449.010712,464.579834 442.143463,471.821167 
	C441.175018,471.737213 440.915558,471.642670 440.656067,471.548126 
z"/>
<path fill="#090D07" opacity="1.000000" stroke="none" 
	d="
M709.283142,479.578186 
	C708.677246,481.278442 708.036255,482.709015 707.549744,483.794830 
	C705.648315,484.609589 703.870483,485.371368 700.826233,486.675842 
	C705.613892,487.928436 708.713623,488.739441 711.438904,489.674377 
	C705.362854,489.575317 699.661316,489.352264 693.971680,488.742493 
	C693.988708,487.838715 693.993713,487.321716 693.998718,486.804688 
	C694.474976,486.506439 694.951233,486.208191 695.762939,486.246521 
	C697.129883,486.916321 698.161194,487.249573 699.192566,487.582794 
	C699.061523,486.569580 698.930542,485.556366 698.799500,484.543152 
	C701.671997,482.146149 704.544495,479.749176 707.672729,477.139557 
	C708.260559,477.182404 708.592712,477.437866 709.103882,477.957581 
	C709.271301,478.584045 709.259705,478.946289 709.283142,479.578186 
z"/>
<path fill="#253720" opacity="1.000000" stroke="none" 
	d="
M598.386353,397.041351 
	C597.894836,397.187988 597.675110,397.129456 597.114380,397.032043 
	C600.677917,387.619507 616.467407,378.300995 622.977539,382.266296 
	C612.526794,383.805573 605.376099,389.977783 598.386353,397.041351 
z"/>
<path fill="#1B4B0E" opacity="1.000000" stroke="none" 
	d="
M341.911102,435.105865 
	C342.244385,426.601440 342.833099,418.063934 343.679138,409.212189 
	C344.079102,410.728394 344.221771,412.558777 344.631805,414.656769 
	C344.558929,421.333435 344.218719,427.742523 343.797089,434.621643 
	C343.199310,435.085388 342.682922,435.079071 341.911102,435.105865 
z"/>
<path fill="#090D07" opacity="1.000000" stroke="none" 
	d="
M520.696899,474.259918 
	C521.338257,473.942932 521.805298,473.963928 522.623169,473.992828 
	C522.684692,478.053192 522.049927,482.238800 527.201660,484.569580 
	C527.216309,484.875549 526.969238,484.907990 526.055664,484.996094 
	C524.926086,485.368256 524.463013,485.684753 523.999939,486.001221 
	C523.087158,485.515778 522.174377,485.030334 521.120850,484.251343 
	C520.827698,480.837830 520.675232,477.717865 520.696899,474.259918 
z"/>
<path fill="#525A4F" opacity="1.000000" stroke="none" 
	d="
M473.002106,454.009277 
	C471.394196,454.129852 469.786316,454.250458 467.775909,454.373962 
	C469.092041,453.738068 470.810669,453.099182 472.771576,452.973816 
	C473.009918,453.661346 473.006012,453.835327 473.002106,454.009277 
z"/>
<path fill="#060E04" opacity="1.000000" stroke="none" 
	d="
M698.496460,484.624908 
	C698.930542,485.556366 699.061523,486.569580 699.192566,487.582794 
	C698.161194,487.249573 697.129883,486.916321 696.045044,486.226135 
	C696.725525,485.481659 697.459473,485.094147 698.496460,484.624908 
z"/>
<path fill="#101110" opacity="1.000000" stroke="none" 
	d="
M450.727173,443.403442 
	C449.903473,443.072174 448.974365,442.399872 448.208435,441.468018 
	C449.039398,441.191772 449.707245,441.175049 450.706879,441.093445 
	C451.038696,441.028564 451.007965,441.003998 450.996582,440.988373 
	C450.864044,441.669312 450.742920,442.365845 450.727173,443.403442 
z"/>
<path fill="#060E04" opacity="1.000000" stroke="none" 
	d="
M693.622925,486.795685 
	C693.993713,487.321716 693.988708,487.838715 693.639771,488.944031 
	C692.276001,489.600769 691.256287,489.669250 690.236572,489.737732 
	C690.402100,489.043182 690.567627,488.348602 690.870239,487.317871 
	C691.753906,486.916718 692.500488,486.851715 693.622925,486.795685 
z"/>
<path fill="#5F605F" opacity="1.000000" stroke="none" 
	d="
M473.376617,454.044861 
	C473.006012,453.835327 473.009918,453.661346 473.019226,453.225952 
	C473.514801,452.977570 474.005005,452.990570 474.867371,452.992371 
	C475.458893,453.054810 475.644958,453.178406 475.881500,453.501099 
	C475.227203,453.793549 474.489166,453.937012 473.376617,454.044861 
z"/>
<path fill="#090D07" opacity="1.000000" stroke="none" 
	d="
M335.249359,477.904510 
	C338.640228,480.478180 342.031097,483.051849 345.618378,486.218872 
	C340.252808,487.208984 334.682587,487.519745 329.133636,488.052277 
	C327.355621,488.222900 325.633911,488.979919 323.733154,489.891785 
	C323.537323,490.644684 323.457581,490.974457 323.457550,491.304230 
	C323.456665,554.712891 323.459076,618.121521 323.482971,681.530212 
	C323.483429,682.796875 323.737518,684.063416 323.858917,685.196045 
	C346.617950,685.196045 368.974640,685.196045 391.482483,685.196045 
	C391.482483,680.806396 391.449860,676.831848 391.488220,672.858032 
	C391.642242,656.903198 391.818268,640.948547 391.986145,624.993835 
	C392.324463,626.718628 392.949219,628.442139 392.956818,630.168396 
	C393.030609,646.992859 393.060181,663.818176 392.954468,680.642273 
	C392.931702,684.265686 392.640778,687.965271 391.783447,691.460571 
	C391.507507,692.585327 389.029022,693.863464 387.539154,693.887390 
	C375.381836,694.082764 363.219971,693.997437 351.059479,693.997498 
	C342.230621,693.997498 333.401794,693.998108 324.572937,693.997314 
	C316.013428,693.996643 315.001770,693.011292 315.001678,684.654358 
	C315.000885,619.853943 315.006531,555.053528 314.975830,490.253082 
	C314.974884,488.296204 314.597748,486.339478 314.051819,484.103760 
	C313.886963,483.302826 314.066254,482.780792 314.895874,482.098938 
	C318.453522,481.624451 321.380463,481.430176 324.262268,480.959412 
	C326.865784,480.534180 329.419983,479.806793 331.995911,479.212646 
	C332.261353,478.968689 332.526794,478.724731 333.285553,478.234467 
	C334.269043,477.960266 334.759186,477.932373 335.249359,477.904510 
z"/>
<path fill="#060E04" opacity="1.000000" stroke="none" 
	d="
M335.248596,477.450073 
	C334.759186,477.932373 334.269043,477.960266 333.410706,477.993835 
	C333.385529,473.637756 333.728485,469.275970 334.117188,464.527069 
	C334.582855,463.860382 335.002747,463.580841 335.672272,463.257568 
	C335.697205,467.807770 335.472534,472.401672 335.248596,477.450073 
z"/>
<path fill="#060E04" opacity="1.000000" stroke="none" 
	d="
M331.536438,479.141174 
	C329.419983,479.806793 326.865784,480.534180 324.262268,480.959412 
	C321.380463,481.430176 318.453522,481.624451 315.102356,481.909363 
	C317.641510,480.935120 320.571381,479.704529 323.624481,479.137573 
	C326.029877,478.690826 328.587128,479.061859 331.536438,479.141174 
z"/>
<path fill="#090D07" opacity="1.000000" stroke="none" 
	d="
M533.133789,584.624390 
	C532.116821,584.612549 531.185181,584.232483 530.253479,583.852356 
	C530.943726,583.240479 531.633972,582.628540 532.700500,582.010742 
	C533.124207,582.755249 533.171570,583.505676 533.133789,584.624390 
z"/>
<path fill="#090D07" opacity="1.000000" stroke="none" 
	d="
M655.470703,578.755981 
	C656.551208,578.125305 658.091248,577.088745 659.639771,577.076111 
	C674.632263,576.953369 689.626221,576.977356 704.619629,577.015808 
	C710.030212,577.029663 715.523804,577.631897 720.606995,574.013916 
	C720.581055,574.967651 720.171570,575.923096 719.597656,577.153503 
	C717.193237,577.915039 714.955261,578.812561 712.713013,578.823486 
	C693.787170,578.915833 674.860596,578.846191 655.470703,578.755981 
z"/>
<path fill="#1B4B0E" opacity="1.000000" stroke="none" 
	d="
M344.325012,407.743347 
	C344.176514,406.491791 344.304840,404.981781 344.682068,403.182373 
	C344.821289,404.423615 344.711548,405.954254 344.325012,407.743347 
z"/>
<path fill="#1B4B0E" opacity="1.000000" stroke="none" 
	d="
M725.990112,381.356873 
	C726.352173,382.090820 726.702759,383.186462 727.000610,384.641693 
	C726.624756,383.907013 726.301697,382.812775 725.990112,381.356873 
z"/>
<path fill="#1B4B0E" opacity="1.000000" stroke="none" 
	d="
M727.163940,387.060669 
	C727.515625,387.861206 727.804443,389.053864 728.063660,390.624023 
	C727.723083,389.818604 727.412109,388.635681 727.163940,387.060669 
z"/>
<path fill="#1B4B0E" opacity="1.000000" stroke="none" 
	d="
M341.957764,437.924500 
	C341.699707,437.950958 341.564514,437.733307 341.623413,437.273376 
	C341.861572,437.288177 341.949249,437.504608 341.957764,437.924500 
z"/>
<path fill="#090D07" opacity="1.000000" stroke="none" 
	d="
M721.458984,572.124512 
	C720.864563,570.343994 720.063721,568.506409 720.057495,566.666199 
	C719.974121,541.962158 719.898315,517.256836 720.089966,492.553925 
	C720.127686,487.692719 719.762207,483.480103 715.068176,480.475281 
	C716.418030,480.402588 717.830017,480.670898 719.610168,480.982971 
	C720.550293,482.491699 721.122192,483.956726 721.826294,485.736633 
	C721.908081,514.369751 721.857666,542.687866 721.871338,571.462769 
	C721.935364,571.919556 721.621887,572.066162 721.458984,572.124512 
z"/>
<path fill="#0C2506" opacity="1.000000" stroke="none" 
	d="
M342.886810,455.029907 
	C341.746460,456.451294 340.283051,457.728333 338.460510,458.983032 
	C339.030548,457.895325 339.959717,456.829865 341.040283,455.493164 
	C341.649017,455.109802 342.106384,454.997650 342.886810,455.029907 
z"/>
<path fill="#FDFDFD" opacity="1.000000" stroke="none" 
	d="
M391.871765,624.537720 
	C391.818268,640.948547 391.642242,656.903198 391.488220,672.858032 
	C391.449860,676.831848 391.482483,680.806396 391.482483,685.196045 
	C368.974640,685.196045 346.617950,685.196045 323.858917,685.196045 
	C323.737518,684.063416 323.483429,682.796875 323.482971,681.530212 
	C323.459076,618.121521 323.456665,554.712891 323.457550,491.304230 
	C323.457581,490.974457 323.537323,490.644684 324.208344,489.863281 
	C362.723724,489.411621 400.610565,489.411621 438.779144,489.411621 
	C438.779144,491.793365 438.779144,493.610474 438.779144,495.427582 
	C438.778961,514.754211 438.758514,534.080872 438.807587,553.407410 
	C438.812958,555.519470 437.818420,558.343018 441.765564,558.368835 
	C445.597656,558.393860 445.961548,556.178345 445.872223,553.134094 
	C445.725708,548.140625 445.849274,543.139343 445.850128,538.141357 
	C445.852692,522.846741 445.851044,507.552185 445.851044,491.875885 
	C447.508484,492.196533 448.754608,492.478821 450.014221,492.674377 
	C456.290253,493.648682 462.489166,494.355103 468.629456,491.592468 
	C471.249542,490.413666 474.248505,489.556213 477.096466,489.491913 
	C491.733215,489.161560 506.376831,489.136597 521.018066,489.004944 
	C521.868408,490.885559 523.462585,492.766602 523.461426,494.646698 
	C523.421570,557.867798 523.229797,621.088806 522.822876,684.843750 
	C522.271545,685.480774 522.022400,685.669739 521.838257,685.944336 
	C521.838257,685.944336 521.426758,685.782654 520.848877,685.702148 
	C502.454132,685.608276 484.637329,685.611145 466.820557,685.577271 
	C444.177887,685.534180 421.535248,685.461365 398.892609,685.401367 
	C398.734497,681.565430 398.576416,677.729431 398.342590,673.210693 
	C398.175873,672.018433 398.084839,671.509033 397.993835,670.999573 
	C398.039673,666.633118 398.085541,662.266663 398.191528,657.073608 
	C398.156586,651.834106 398.061523,647.421265 397.966492,643.008423 
	C398.030914,639.968445 398.095337,636.928467 398.208008,633.220581 
	C398.169769,631.701233 398.083252,630.849915 397.996765,629.998535 
	C398.214905,622.081360 398.508728,614.164856 398.571838,606.246460 
	C398.581573,605.020569 397.534485,603.786316 396.368195,602.352844 
	C395.114655,602.238281 394.469055,602.326721 393.823486,602.415222 
	C393.206635,603.682495 392.110931,604.928955 392.054932,606.220459 
	C391.797028,612.167297 391.829193,618.126648 391.871765,624.537720 
z"/>
<path fill="#FDFDFD" opacity="1.000000" stroke="none" 
	d="
M689.825073,489.831909 
	C691.256287,489.669250 692.276001,489.600769 693.627747,489.330780 
	C699.661316,489.352264 705.362854,489.575317 711.442627,490.089233 
	C711.698975,497.176666 711.492615,503.972931 711.471985,510.769775 
	C711.419189,528.221252 711.448792,545.673035 711.445496,563.124695 
	C711.445190,564.748962 711.445496,566.373230 711.445496,568.490173 
	C689.578918,568.490173 668.182251,568.490173 646.030090,568.628845 
	C645.012085,569.847961 644.749573,570.928467 644.487122,572.008911 
	C644.286987,573.726990 644.086853,575.445007 643.839050,577.812927 
	C643.871216,579.305176 643.951050,580.147583 644.031006,580.989990 
	C643.973450,614.402771 643.940186,647.815735 643.773010,681.227966 
	C643.766052,682.615662 642.506836,683.997131 641.091980,685.362793 
	C629.199951,685.334351 618.046875,685.278625 606.894165,685.327026 
	C594.259094,685.381836 581.624390,685.530029 568.989563,685.637634 
	C568.542542,685.542175 568.095520,685.446716 566.999023,685.351074 
	C565.867676,685.327209 565.385864,685.303589 564.904053,685.279907 
	C564.904053,685.279968 564.920776,685.079834 564.793945,684.614746 
	C564.526184,677.430298 564.385315,670.710938 564.244446,663.991577 
	C564.310974,657.291382 564.377563,650.591248 564.382507,643.124023 
	C564.230713,641.231995 564.140503,640.106934 564.050293,638.981934 
	C564.135071,629.965515 564.219788,620.949097 564.309692,611.089478 
	C564.212402,603.164062 564.109924,596.081726 564.007446,588.999451 
	C564.004272,583.679077 563.781311,578.346802 564.070068,573.042297 
	C564.286438,569.067200 562.452820,568.294067 559.023743,568.395752 
	C552.198792,568.598145 545.359741,568.365967 538.538391,568.625732 
	C534.688232,568.772400 533.338989,567.546448 533.378906,563.533752 
	C533.594543,541.878723 533.546570,520.221008 533.581665,498.564270 
	C533.586243,495.752747 533.545105,492.941193 533.752136,489.798187 
	C554.214722,489.539307 574.235291,490.569122 594.108398,495.521729 
	C613.311096,500.307312 632.974731,499.803070 652.378845,495.419586 
	C659.453064,493.821472 666.378967,491.440704 673.512695,490.274689 
	C678.693604,489.427826 684.104980,489.991394 689.825073,489.831909 
z"/>
<path fill="#101110" opacity="1.000000" stroke="none" 
	d="
M520.853821,488.752686 
	C506.376831,489.136597 491.733215,489.161560 477.096466,489.491913 
	C474.248505,489.556213 471.249542,490.413666 468.629456,491.592468 
	C462.489166,494.355103 456.290253,493.648682 450.014221,492.674377 
	C448.754608,492.478821 447.508484,492.196533 445.851044,491.875885 
	C445.851044,507.552185 445.852692,522.846741 445.850128,538.141357 
	C445.849274,543.139343 445.725708,548.140625 445.872223,553.134094 
	C445.961548,556.178345 445.597656,558.393860 441.765564,558.368835 
	C437.818420,558.343018 438.812958,555.519470 438.807587,553.407410 
	C438.758514,534.080872 438.778961,514.754211 438.779144,495.427582 
	C438.779144,493.610474 438.779144,491.793365 438.779144,489.411621 
	C400.610565,489.411621 362.723724,489.411621 324.361633,489.440125 
	C325.633911,488.979919 327.355621,488.222900 329.133636,488.052277 
	C334.682587,487.519745 340.252808,487.208984 345.906311,486.416809 
	C352.133698,486.752258 357.659271,485.498291 362.897583,481.952240 
	C369.952332,477.176575 377.748199,478.981720 385.414368,480.299408 
	C389.850159,481.061859 394.323181,481.607544 400.141663,482.447418 
	C398.596191,480.366577 397.970795,479.524567 397.159424,478.358459 
	C397.268463,477.639343 397.563507,477.244263 398.129395,476.588135 
	C400.692444,478.173889 402.750397,480.496765 405.327362,481.765015 
	C410.177032,484.151764 415.221832,484.754395 419.522156,480.492279 
	C427.818359,485.050293 434.806519,482.777161 438.527771,474.499329 
	C438.931793,473.600647 439.564240,472.804626 440.373413,471.754547 
	C440.915558,471.642670 441.175018,471.737213 441.836121,471.933350 
	C438.116821,481.072449 442.449097,488.247986 452.067810,490.316895 
	C460.915192,492.219879 467.944244,488.954773 474.866974,484.623932 
	C481.488068,480.481812 488.354919,482.029785 495.054749,483.601318 
	C502.739227,485.403839 510.310516,486.760803 518.558594,484.807312 
	C519.556519,486.056335 520.123047,487.278381 520.853821,488.752686 
z"/>
<path fill="#101110" opacity="1.000000" stroke="none" 
	d="
M399.049194,685.758972 
	C421.535248,685.461365 444.177887,685.534180 466.820557,685.577271 
	C484.637329,685.611145 502.454132,685.608276 520.644226,685.785706 
	C519.464417,686.298218 517.911804,686.948608 516.358215,686.950928 
	C478.713043,687.007446 441.067780,687.004272 403.422577,686.957581 
	C402.016632,686.955811 400.611359,686.409241 399.049194,685.758972 
z"/>
<path fill="#090D07" opacity="1.000000" stroke="none" 
	d="
M569.160889,685.970520 
	C581.624390,685.530029 594.259094,685.381836 606.894165,685.327026 
	C618.046875,685.278625 629.199951,685.334351 640.738647,685.499939 
	C639.957520,686.102966 638.791809,686.936157 637.623352,686.940063 
	C615.459412,687.014343 593.295166,686.996277 571.131042,686.959106 
	C570.531128,686.958069 569.931824,686.531555 569.160889,685.970520 
z"/>
<path fill="#090D07" opacity="1.000000" stroke="none" 
	d="
M563.709106,589.292236 
	C564.109924,596.081726 564.212402,603.164062 564.193481,610.634766 
	C563.851685,603.877197 563.631226,596.731079 563.709106,589.292236 
z"/>
<path fill="#090D07" opacity="1.000000" stroke="none" 
	d="
M563.928101,664.181396 
	C564.385315,670.710938 564.526184,677.430298 564.693970,684.624023 
	C563.911377,684.391785 562.378418,683.656250 562.405334,682.983093 
	C562.653809,676.773010 563.171997,670.573669 563.928101,664.181396 
z"/>
<path fill="#101110" opacity="1.000000" stroke="none" 
	d="
M397.675476,643.301758 
	C398.061523,647.421265 398.156586,651.834106 398.096893,656.616333 
	C397.756226,652.522156 397.570343,648.058655 397.675476,643.301758 
z"/>
<path fill="#090D07" opacity="1.000000" stroke="none" 
	d="
M652.997314,584.915894 
	C652.831177,586.370178 652.665283,587.423279 652.499390,588.476379 
	C652.183838,588.444641 651.868225,588.412903 651.552673,588.381165 
	C651.552673,585.760437 651.552673,583.139648 651.552673,580.518921 
	C651.899170,580.491882 652.245667,580.464905 652.592163,580.437866 
	C652.727295,581.796814 652.862427,583.155762 652.997314,584.915894 
z"/>
<path fill="#090D07" opacity="1.000000" stroke="none" 
	d="
M563.798035,639.160400 
	C564.140503,640.106934 564.230713,641.231995 564.218262,642.684387 
	C563.925720,641.787476 563.735779,640.563232 563.798035,639.160400 
z"/>
<path fill="#101110" opacity="1.000000" stroke="none" 
	d="
M524.044983,486.314636 
	C524.463013,485.684753 524.926086,485.368256 525.683594,485.032104 
	C525.671326,485.855347 525.364563,486.698212 525.057861,487.541107 
	C524.735229,487.236755 524.412659,486.932373 524.044983,486.314636 
z"/>
<path fill="#090D07" opacity="1.000000" stroke="none" 
	d="
M644.275513,580.808594 
	C643.951050,580.147583 643.871216,579.305176 643.923096,578.239746 
	C644.209961,578.886902 644.365051,579.757080 644.275513,580.808594 
z"/>
<path fill="#101110" opacity="1.000000" stroke="none" 
	d="
M397.746399,630.179077 
	C398.083252,630.849915 398.169769,631.701233 398.114410,632.773621 
	C397.813751,632.116272 397.654907,631.237915 397.746399,630.179077 
z"/>
<path fill="#090D07" opacity="1.000000" stroke="none" 
	d="
M644.797485,571.906982 
	C644.749573,570.928467 645.012085,569.847961 645.636475,568.796143 
	C645.701538,569.818237 645.404724,570.811646 644.797485,571.906982 
z"/>
<path fill="#101110" opacity="1.000000" stroke="none" 
	d="
M397.785370,671.110352 
	C398.084839,671.509033 398.175873,672.018433 398.169586,672.775757 
	C397.907135,672.422791 397.742004,671.821899 397.785370,671.110352 
z"/>
<path fill="#090D07" opacity="1.000000" stroke="none" 
	d="
M393.973114,602.733765 
	C394.469055,602.326721 395.114655,602.238281 395.967163,602.295715 
	C395.490265,602.645142 394.806519,602.848694 393.973114,602.733765 
z"/>
<path fill="#090D07" opacity="1.000000" stroke="none" 
	d="
M564.966553,685.531128 
	C565.385864,685.303589 565.867676,685.327209 566.680298,685.497437 
	C566.350403,685.690125 565.689697,685.736206 564.966553,685.531128 
z"/>
<path fill="#101110" opacity="1.000000" stroke="none" 
	d="
M522.081543,685.923279 
	C522.022400,685.669739 522.271545,685.480774 522.818726,685.330078 
	C522.895996,685.590698 522.653625,685.797241 522.081543,685.923279 
z"/>
<path fill="#5F605F" opacity="1.000000" stroke="none" 
	d="
M587.657959,398.929047 
	C586.028687,403.814331 583.699219,408.608826 582.161743,413.645111 
	C580.932739,417.670990 580.667297,421.991058 579.853027,426.604675 
	C579.225159,427.029449 578.718445,427.030121 577.958740,427.046448 
	C579.452148,419.197815 581.008667,411.282745 583.088928,403.507782 
	C583.562622,401.737305 585.848022,400.451508 587.657959,398.929047 
z"/>
<path fill="#5F605F" opacity="1.000000" stroke="none" 
	d="
M485.789093,454.546021 
	C485.827393,454.040070 486.216095,453.804047 486.800293,453.288330 
	C491.568665,451.761353 496.141602,450.514130 500.356964,449.364441 
	C499.679596,453.793701 495.121033,455.828217 485.789093,454.546021 
z"/>
<path fill="#253720" opacity="1.000000" stroke="none" 
	d="
M416.468842,466.971771 
	C420.843506,466.938660 424.778961,466.938660 429.227905,466.938660 
	C425.715088,471.108490 420.795715,472.457123 415.550873,472.599792 
	C411.401245,472.712708 409.164795,469.878937 408.135437,467.004883 
	C410.704926,467.004883 413.367279,467.004883 416.468842,466.971771 
z"/>
<path fill="#101110" opacity="1.000000" stroke="none" 
	d="
M393.976196,451.017212 
	C394.865540,451.369873 395.553131,451.926849 396.240723,452.483826 
	C396.113922,452.708557 395.987122,452.933289 395.860321,453.157990 
	C395.167145,452.847687 394.473999,452.537354 393.580536,451.933167 
	C393.511627,451.500000 393.643036,451.360748 393.976196,451.017212 
z"/>
</svg>


